<svg id="Layer_1" data-name="Layer 1" xmlns="http://www.w3.org/2000/svg" xmlns:xlink="http://www.w3.org/1999/xlink" viewBox="0 0 498.76 436.68">
  <defs>
    <style>
      .cls-1 {
        fill: none;
      }

      .cls-2 {
        fill: #14143f;
      }

      .cls-3 {
        fill: url(#Unnamed_Pattern_22);
      }

      .cls-4 {
        fill: #fff;
      }

      .cls-5 {
        fill: #010101;
      }

      .cls-6 {
        fill: #b8c0c8;
      }

      .cls-7 {
        fill: #0bbee7;
      }

      .cls-8 {
        fill: url(#Unnamed_Pattern_22-41);
      }

      .cls-9 {
        fill: #101121;
      }
    </style>
    <pattern id="Unnamed_Pattern_22" data-name="Unnamed Pattern 22" width="129.5" height="110.5" patternTransform="translate(2110.74 1415.16) scale(0.74 0.74)" patternUnits="userSpaceOnUse" viewBox="0 0 129.5 110.5">
      <rect class="cls-1" width="129.5" height="110.5"/>
      <rect class="cls-2" width="129.5" height="110.5"/>
    </pattern>
    <pattern id="Unnamed_Pattern_22-41" data-name="Unnamed Pattern 22" width="129.5" height="110.5" patternTransform="translate(2155.02 1372.11) scale(0.74 0.74)" patternUnits="userSpaceOnUse" viewBox="0 0 129.5 110.5">
      <rect class="cls-1" width="129.5" height="110.5"/>
      <rect class="cls-2" width="129.5" height="110.5"/>
    </pattern>
  </defs>
  <title>futbolimetro-logo-primary</title>
  <path class="cls-3" d="M221.31,241.9a51.7,51.7,0,0,1-7.46-.55A51,51,0,0,1,175,212.28a49.12,49.12,0,0,1-1.44-39.11c6.75-17.63,20.09-28.75,38.57-32.15a46.47,46.47,0,0,1,7.06-.67c7.3-6.36,14.31-12.49,19.74-17.24L280.16,87l4.42-3.86,17.64-15.44,27.49-24.06,14.71-12.85.47-.41,11.48-10a22.1,22.1,0,0,1,14.53-5.55,21.08,21.08,0,0,1,14.39,5.7c8.41,7.85,9.2,20.08,1.88,29.09-4.94,6.1-10,12.28-14.86,18.26l-.52.64c-4.69,5.75-9.54,11.69-14.3,17.56-5,6.1-10,12.3-14.81,18.29l-.06.07c-4.94,6.11-10.07,12.45-15.12,18.67-5.88,7.24-11.84,14.54-17.61,21.62l-.91,1.11q-5.52,6.76-11,13.52L272.4,191.48a50.44,50.44,0,0,1-32.19,46.82,51.23,51.23,0,0,1-18.9,3.6"/>
  <path class="cls-4" d="M370.9,20.4a15.7,15.7,0,0,1,12,25.76c-5,6.16-10.09,12.41-15,18.45l-.12.15C363,70.61,358,76.65,353.17,82.62s-10,12.31-14.82,18.3l0,.06c-4.95,6.12-10.08,12.46-15.13,18.68-5.91,7.28-11.92,14.64-17.73,21.76q-5.91,7.25-11.81,14.48l-26.82,33.68a44.94,44.94,0,0,1-28.65,43.57A45.52,45.52,0,0,1,180.05,210a43.71,43.71,0,0,1-1.29-34.81c6-15.72,17.91-25.64,34.39-28.68a44.56,44.56,0,0,1,6.73-.59l1.49-.05c7.83-6.83,15.43-13.47,21.23-18.55l6.05-5.29L283.82,91.2l1.14-1,3.29-2.88,17-14.88,28.13-24.62q7.33-6.42,14.7-12.83l.06-.06L360,24.58A16.58,16.58,0,0,1,370.9,20.4m0-11.08a27.63,27.63,0,0,0-18.19,6.93L340.83,26.61l-.07.06L326.05,39.51,297.92,64.13l-.39.35L280.92,79l-3.28,2.86-1.13,1-35.19,30.79-6,5.3c-5,4.39-11.47,10-18.26,16a44.54,44.54,0,0,0-5.88.67,54.85,54.85,0,0,0-42.75,35.62A54.53,54.53,0,0,0,170,214.62a56.66,56.66,0,0,0,72.29,28.83,56,56,0,0,0,35.65-50l24.39-30.63q5.88-7.22,11.77-14.42l0,0c5.8-7.11,11.8-14.46,17.71-21.74,5.05-6.21,10.16-12.53,15.1-18.64l0-.06,0,0c4.85-6,9.85-12.18,14.82-18.3s9.78-12,14.53-17.84l.12-.15c4.92-6,10-12.27,15-18.46a27,27,0,0,0,6.14-18.78,26.82,26.82,0,0,0-26.73-25"/>
  <path class="cls-5" d="M465.79,309.22a12.18,12.18,0,0,1-1.71-.12l-6.21-.82c-10.25-1.36-40.61-4.87-43.79-5.2l-6.62-.69-6.84-.66c-3.61-.34-7.22-.68-10.84-1l-7.55-.67-7.69-.61c-3.61-.29-7.23-.56-10.84-.83l-7.48-.54-7.69-.48c-10.18-.64-20.48-1.19-30.62-1.62l-2.39-.11-2-.08q-5.43-.23-10.86-.4l-4.41-.15-4.6-.13-10.86-.27-4.59-.09-4.42-.07q-5.43-.09-10.86-.13l-2.25,0h-2.17c-3,0-6.09,0-9.13,0H243.2c-8.44,0-17,.14-25.53.31l-2,0-2.39,0c-10.18.24-20.49.57-30.64,1l-2.32.1-2.09.09c-10.17.46-20.47,1-30.62,1.68l-7.71.49-7.55.56c-3.61.27-7.23.55-10.84.85l-7.6.61-7.55.69c-5.09.46-10.49,1-16,1.54l-24.26,2.83-25.18,2.94-6.18.82a12.29,12.29,0,0,1-1.71.12,12.55,12.55,0,0,1-6.35-1.7l-15.79-9.26a10.27,10.27,0,0,1-5.28-8.84V191.74c0-8.65,8-15.7,17.94-15.7H481.58c6.41,0,11.63,4.72,11.63,10.53V289.42a10.28,10.28,0,0,1-5.28,8.84l-15.79,9.26a12.55,12.55,0,0,1-6.35,1.7"/>
  <path class="cls-4" d="M472.87,181.58h8.71c3.35,0,6.07,2.23,6.07,5V289.42a4.78,4.78,0,0,1-2.54,4.06l-15.79,9.27a7.14,7.14,0,0,1-3.54.93,6.42,6.42,0,0,1-1-.07l-6.21-.82c-10.15-1.35-40.31-4.84-43.93-5.22l-5.32-.55v0l-8.2-.78c-3.62-.35-7.25-.68-10.87-1l-7-.63h0l-8.25-.66c-3.62-.28-7.25-.56-10.88-.82l-7.17-.52h0l-8.05-.51c-10.2-.64-20.54-1.19-30.73-1.63l-2.39-.1-2-.09c-3.63-.14-7.26-.28-10.89-.4l-4.42-.15-4.62-.13-10.9-.27-4.59-.09-4.45-.07c-3.64-.06-7.27-.1-10.91-.13l-2.24,0h-2.19c-3,0-6.11,0-9.16,0h-6.17c-8.51,0-17.13.14-25.62.31l-2,0-2.41.05c-10.23.24-20.58.57-30.75,1l-2.31.09-2.11.1c-10.21.46-20.55,1-30.73,1.68l-8.15.52h0l-7.16.53c-3.63.27-7.25.55-10.88.84l-8.16.67h0l-7,.64c-5.36.49-10.75,1-16.13,1.55-2.14.26-49,5.71-49.53,5.79l-6.22.82a6.33,6.33,0,0,1-1,.07,7.07,7.07,0,0,1-3.53-.93l-15.8-9.27a4.8,4.8,0,0,1-2.54-4.06V191.75c0-5.62,5.55-10.17,12.39-10.17H472.87m0-11.08H23.5A24.91,24.91,0,0,0,7.68,176,20.43,20.43,0,0,0,0,191.75v97.67A15.76,15.76,0,0,0,8,303l15.79,9.26a18.12,18.12,0,0,0,11.61,2.3l6.16-.81,24.74-2.89L90.92,308c5.54-.56,10.89-1.08,15.92-1.53l7-.64.49-.05,7.57-.61c3.6-.29,7.24-.58,10.81-.84l7.15-.53.39,0,7.66-.49c10.11-.66,20.38-1.22,30.51-1.67l2.11-.1,2.29-.1c10.11-.42,20.38-.76,30.53-1l2.4-.05,2,0c8.46-.17,17-.27,25.43-.31h6.14l9.09,0h2.18l2.22,0c3.47,0,7.11.07,10.83.13l4.43.07,4.54.09,10.83.27,4.6.13,4.37.14c3.5.12,7.14.26,10.82.41l2,.08,2.36.1c10.13.44,20.4,1,30.51,1.62l7.66.48.28,0,7.17.52c3.63.26,7.27.54,10.81.82l7.69.61.45,0,7.05.63c3.52.31,7.15.65,10.8,1l7,.67,1.12.12,5.32.55c3.86.41,33.84,3.88,43.62,5.18l6.22.82a18.09,18.09,0,0,0,11.6-2.3l15.8-9.26a15.75,15.75,0,0,0,8-13.61V186.57c0-8.86-7.7-16.07-17.18-16.07Z"/>
  <path class="cls-2" d="M249.37,430.16A211.82,211.82,0,1,1,399.56,68.56a211.82,211.82,0,0,1-150.19,361.6"/>
  <path class="cls-4" d="M189.19,319.32a39.74,39.74,0,0,1-1.44-4.81,114.59,114.59,0,0,1-13.37-3.7c-7.36-2.43-14.9-5.32-23.06-8.85-4.46-1.93-8.46-3.77-12.24-5.63s-7.15-3.63-10.46-5.51c-2.72-1.54-5.48-3.23-8.21-5-1.11-.73-2.18-1.5-3.23-2.27l-.36.31c-2.43,2.06-4.95,4.19-7.35,6.32-5.6,4.94-11,10.07-16.17,15.25,0,.23,0,.46,0,.69.08,1.13.15,2.2.29,3.17,1.17,7.86,4.11,15.71,9,24a110.45,110.45,0,0,0,21.67,26c1.11,1,2.24,2,3.44,3,.76.64,1.51,1.29,2.26,1.94a7.64,7.64,0,0,1,2,2.58l1.37,1.05c1.94,1.47,3.93,3,5.91,4.46A82.92,82.92,0,0,0,151.79,380l1.51.72a136.84,136.84,0,0,0,26.36,9.18A70.66,70.66,0,0,0,191,391.77h.15a95.44,95.44,0,0,0,25.6-19.68c.58-.64,1.11-1.25,1.6-1.86a376.64,376.64,0,0,1-21.28-34,117.42,117.42,0,0,1-7.83-16.88"/>
  <path class="cls-4" d="M203.66,156l-5.44-2.63c-5.91-2.83-11.93-5.55-17.57-8.08l-.11.28-4.74-.82a8.6,8.6,0,0,0-4.47.65,42.54,42.54,0,0,0-4.19,1.77A93.11,93.11,0,0,0,152.08,157a248.25,248.25,0,0,0-24.93,22.42,157.93,157.93,0,0,0-11.82,13.11,2.41,2.41,0,0,0-.44.7c-.1.82-.22,1.58-.34,2.33s-.23,1.41-.3,2.06a98.62,98.62,0,0,0-.11,18.41,253.81,253.81,0,0,0,7.25,43.45,100.51,100.51,0,0,0,3.33,11.17,85.06,85.06,0,0,0,9.32,6.17c3.66,2.14,7.59,4.25,11.7,6.26,3.85,1.9,7.85,3.71,12.23,5.56,5.76,2.43,11.69,4.66,17.43,6.81a107.12,107.12,0,0,0,13.33,4.07c1.07.26,2.18.48,3.36.71l.5-.23a33.52,33.52,0,0,0,3.44-1.82c4.86-2.83,9.44-6.05,13.66-9.11,15.13-10.94,29.77-22.75,42.36-33.12-.63-2.32-1.28-4.72-1.83-7.13-2.55-11.2-4.33-22.18-5.72-31.44-2-13.44-4-27.11-5.9-40.33l-.51-3.5q-4.83-2.47-9.67-5c-3.94-2-8-4.16-12-6.21-5-2.52-9-4.55-12.72-6.38"/>
  <path class="cls-4" d="M391.87,213.5c-1.63-15.1-5.06-31.18-10.5-49.15-.58-1.92-1.1-2.22-1.43-2.43a8.09,8.09,0,0,1-1.26-.92l0,0A168.17,168.17,0,0,0,363.81,151c-6.48-3.92-13.25-7.63-20.12-11l-.4-.2c-5.05-2.48-10.22-4.83-15.5-7.22a144,144,0,0,0-14.73-5.71,9.16,9.16,0,0,1-1.16.71l-.2.1c-1.81.93-3.51,1.8-5.11,2.76-5.6,3.38-11,7.28-15.58,10.67-12.44,9.14-24.36,18.65-38.32,30.05,1,6.66,2,13.4,2.92,19.93,1.06,7.3,2.16,14.85,3.27,22.26,1.46,9.66,3.29,21.08,5.88,32.51l.07.32a50.88,50.88,0,0,0,2.49,8.69l5.87,2.78c5.26,2.49,10.71,5.07,16.08,7.53,11,5,19.36,8.77,27.29,12.21l1.6.7c4,1.73,7.71,3.37,11.54,3.91l.76.1,1.29-.43,1.47-.51a90.47,90.47,0,0,0,17.24-8.83,164.9,164.9,0,0,0,23.47-18.47,155.3,155.3,0,0,0,16.53-17.49c.47-.6.86-1.08,1.18-1.47.12-.14.24-.28.34-.42s0-.48.07-.72c.05-.53.11-1.15.19-1.92a85.77,85.77,0,0,0-.37-18.37"/>
  <path class="cls-4" d="M424.51,273.64a72.86,72.86,0,0,0,0-12.19l-.42-.25L417,256.88c-5.27-3.16-10.07-5.8-14.67-8.06l-.75-.37c-.42-.2-.85-.4-1.29-.59a201.55,201.55,0,0,1-36.3,33.28,114.34,114.34,0,0,1-22.11,12.55q-1.24.51-2.49,1a24.1,24.1,0,0,1,.06,2.69c-.1,2.26-.24,4.92-.62,7.58a121.33,121.33,0,0,1-5.43,21.32A203,203,0,0,1,321.72,354l-.28.55c-.57,1.12-1.17,2.31-1.87,3.5l2.34,1.53a50.4,50.4,0,0,0,4.75,2.63,87.08,87.08,0,0,0,10.16,4.11A136,136,0,0,0,355,371.19a9.54,9.54,0,0,1,1.32.34,26.5,26.5,0,0,0,3.5-1.4A83.84,83.84,0,0,0,379,357.35a149.68,149.68,0,0,0,15.18-15.68,180,180,0,0,0,13.09-17.18c2.07-3.09,4.25-6.44,6.24-9.92A75.1,75.1,0,0,0,419.89,299a111.53,111.53,0,0,0,4.62-25.32"/>
  <path class="cls-4" d="M107.14,179.24a275.7,275.7,0,0,1,31.52-30.45,129.55,129.55,0,0,1,18.56-13.1,55.7,55.7,0,0,1,7.86-3.78,27.37,27.37,0,0,1-.23-3.59,52.11,52.11,0,0,1,1.3-11.32,139.18,139.18,0,0,1,6.57-21.49,187.85,187.85,0,0,1,10.1-21.92,23.07,23.07,0,0,1,1.25-2.09c-4.57-1.31-9.26-2.66-13.88-3.92-6.59-1.8-12.58-3.19-18.32-4.24-.52-.1-1.11-.2-1.45-.25-.33.12-.89.36-1.39.58A138.37,138.37,0,0,0,122.16,79a48,48,0,0,0-5,4,171.9,171.9,0,0,0-15.84,17.44c-3.69,4.62-6.89,9-9.78,13.47-2.61,4-5,8-6.84,11.14A44.43,44.43,0,0,0,82,130.52a81.56,81.56,0,0,0-5.08,17.92,62,62,0,0,0-.83,16,21.44,21.44,0,0,0,.72,4.15c2.89,1.46,5.86,3,8.85,4.43,4.91,2.41,9,4.29,12.82,5.93,2.17.92,4.37,1.75,6.7,2.63.64-.78,1.3-1.57,2-2.34"/>
  <path class="cls-4" d="M314.77,109.67c.31.85.57,1.69.81,2.52A215.61,215.61,0,0,1,346.9,125.1l4.78,2.38a250,250,0,0,1,32.84,19.42l25.12-18.58a153.21,153.21,0,0,0-6.95-21.67,13.7,13.7,0,0,0-1.88-3.24,189,189,0,0,0-28.48-29.77,161.06,161.06,0,0,0-14.46-11c-3.7-2.46-7.53-4.9-11.7-7.46a45,45,0,0,0-4-2.23c-.46-.23-.92-.44-1.39-.65a161.8,161.8,0,0,0-18.34-6.78,79.79,79.79,0,0,0-11.19-2.74H311a31.21,31.21,0,0,0-3.93,1.3,56.91,56.91,0,0,0-12.24,7.2,71.26,71.26,0,0,0-10.28,9,351.68,351.68,0,0,1,22.71,33.95,96.43,96.43,0,0,1,7.5,15.43"/>
  <path class="cls-4" d="M320.48,375.61a88.32,88.32,0,0,1-12-7.17,49.59,49.59,0,0,1-5.33,2.53,92,92,0,0,1-16.29,4.78,212.08,212.08,0,0,1-31.48,3.83c-7.93.44-14.57.57-20.89.39a11.83,11.83,0,0,1-4.18-.79l-.21-.09c-.52.69-1.06,1.38-1.65,2.08-5.35,6.24-11.88,11.9-20.53,17.81q-1.69,1.15-3.39,2.22c.58.38,1.19.76,1.85,1.16l.55.34c.25.15.5.31.66.39a190.69,190.69,0,0,0,135.33-19.53,154,154,0,0,1-14.69-4.63c-2.61-1-5.21-2.09-7.72-3.32"/>
  <path class="cls-4" d="M198.39,60.49a8.9,8.9,0,0,1,1-.42l.09,0a93.32,93.32,0,0,1,18.28-5.29c14.78-2.85,30.93-4.18,49.38-4.07a14.67,14.67,0,0,1,5.25,1,72.52,72.52,0,0,1,8.08-7.86,92.11,92.11,0,0,1,13.4-9.61c-3.35-.79-6.66-1.49-9.91-2.08A189.5,189.5,0,0,0,230.8,30,193.07,193.07,0,0,0,163.49,49.8a9.53,9.53,0,0,0-1.06.6c4.74,1.07,9.35,2.26,13.73,3.44,7.55,2,14.94,4,22.23,6.65"/>
  <path class="cls-4" d="M84.2,303a1.35,1.35,0,0,0-.42-1.08,63.43,63.43,0,0,1-8.46-10.59c-5.17-7.6-9.74-15.56-14.17-23.6-.2-.37-.42-.73-.64-1.09l-.21.12a191.86,191.86,0,0,0,33,68.46c-.89-1.81-1.82-3.61-2.66-5.44-3.86-8.52-6.51-17.33-6.44-26.78"/>
  <path class="cls-4" d="M65.25,182c1.15-2.45,2.43-4.84,3.67-7.25.2-.4.42-.74.17-1.23a22.39,22.39,0,0,1-2-8.08,65.8,65.8,0,0,1,.26-14c.16-1.35.35-2.69.53-4a173.86,173.86,0,0,0-10.58,36,180.56,180.56,0,0,0-3.06,34.26c.4-1.57.68-3.15,1-4.72a133.59,133.59,0,0,1,10-31"/>
  <path class="cls-4" d="M445.16,229.68a5.79,5.79,0,0,0-.32.73,109.52,109.52,0,0,1-7.16,18.13c-1.35,2.8-2.86,5.53-4.3,8.29a2,2,0,0,0-.28,1.36,45.6,45.6,0,0,1,.55,4.93,115,115,0,0,1-2.39,27.57c-.08.4-.14.82-.21,1.22a183,183,0,0,0,14.11-62.23"/>
  <path class="cls-4" d="M419.66,132.73a2.45,2.45,0,0,0,.51,1.05c1.76,2.42,3.65,4.75,5.28,7.24a190,190,0,0,1,10.67,19.31l.81,1.62.3-.12a189.38,189.38,0,0,0-22.16-47.9,11.17,11.17,0,0,0,.5,2.09,109.21,109.21,0,0,1,4.09,16.71"/>
  <path class="cls-6" d="M189.19,319.32a39.74,39.74,0,0,1-1.44-4.81,114.59,114.59,0,0,1-13.37-3.7c-7.36-2.43-14.9-5.32-23.06-8.85-4.46-1.93-8.46-3.77-12.24-5.63s-7.15-3.63-10.46-5.51c-2.72-1.54-5.48-3.23-8.21-5-1.11-.73-2.18-1.5-3.23-2.27l-.36.31c-2.43,2.06-4.95,4.19-7.35,6.32-5.6,4.94-11,10.07-16.17,15.25,0,.23,0,.46,0,.69.08,1.13.15,2.2.29,3.17,1.17,7.86,4.11,15.71,9,24a110.45,110.45,0,0,0,21.67,26c1.11,1,2.24,2,3.44,3,.76.64,1.51,1.29,2.26,1.94a7.64,7.64,0,0,1,2,2.58l1.37,1.05c1.94,1.47,3.93,3,5.91,4.46A82.92,82.92,0,0,0,151.79,380l1.51.72a136.84,136.84,0,0,0,26.36,9.18A70.66,70.66,0,0,0,191,391.77h.15a95.44,95.44,0,0,0,25.6-19.68c.58-.64,1.11-1.25,1.6-1.86a376.64,376.64,0,0,1-21.28-34,117.42,117.42,0,0,1-7.83-16.88"/>
  <path class="cls-6" d="M424.51,273.64a72.86,72.86,0,0,0,0-12.19l-.42-.25L417,256.88c-5.27-3.16-10.07-5.8-14.67-8.06l-.75-.37c-.42-.2-.85-.4-1.29-.59a201.55,201.55,0,0,1-36.3,33.28,114.34,114.34,0,0,1-22.11,12.55q-1.24.51-2.49,1a24.1,24.1,0,0,1,.06,2.69c-.1,2.26-.24,4.92-.62,7.58a121.33,121.33,0,0,1-5.43,21.32A203,203,0,0,1,321.72,354l-.28.55c-.57,1.12-1.17,2.31-1.87,3.5l2.34,1.53a50.4,50.4,0,0,0,4.75,2.63,87.08,87.08,0,0,0,10.16,4.11A136,136,0,0,0,355,371.19a9.54,9.54,0,0,1,1.32.34,26.5,26.5,0,0,0,3.5-1.4A83.84,83.84,0,0,0,379,357.35a149.68,149.68,0,0,0,15.18-15.68,180,180,0,0,0,13.09-17.18c2.07-3.09,4.25-6.44,6.24-9.92A75.1,75.1,0,0,0,419.89,299a111.53,111.53,0,0,0,4.62-25.32"/>
  <path class="cls-6" d="M320.48,375.61a88.32,88.32,0,0,1-12-7.17,49.59,49.59,0,0,1-5.33,2.53,92,92,0,0,1-16.29,4.78,212.08,212.08,0,0,1-31.48,3.83c-7.93.44-14.57.57-20.89.39a11.83,11.83,0,0,1-4.18-.79l-.21-.09c-.52.69-1.06,1.38-1.65,2.08-5.35,6.24-11.88,11.9-20.53,17.81q-1.69,1.15-3.39,2.22c.58.38,1.19.76,1.85,1.16l.55.34c.25.15.5.31.66.39a190.69,190.69,0,0,0,135.33-19.53,154,154,0,0,1-14.69-4.63c-2.61-1-5.21-2.09-7.72-3.32"/>
  <path class="cls-6" d="M84.2,303a1.35,1.35,0,0,0-.42-1.08,63.43,63.43,0,0,1-8.46-10.59c-5.17-7.6-9.74-15.56-14.17-23.6-.2-.37-.42-.73-.64-1.09l-.21.12a191.86,191.86,0,0,0,33,68.46c-.89-1.81-1.82-3.61-2.66-5.44-3.86-8.52-6.51-17.33-6.44-26.78"/>
  <path class="cls-6" d="M445.16,229.68a5.79,5.79,0,0,0-.32.73,109.52,109.52,0,0,1-7.16,18.13c-1.35,2.8-2.86,5.53-4.3,8.29a2,2,0,0,0-.28,1.36,45.6,45.6,0,0,1,.55,4.93,115,115,0,0,1-2.39,27.57c-.08.4-.14.82-.21,1.22a183,183,0,0,0,14.11-62.23"/>
  <path class="cls-6" d="M419.66,132.73a2.45,2.45,0,0,0,.51,1.05c1.76,2.42,3.65,4.75,5.28,7.24a190,190,0,0,1,10.67,19.31l.81,1.62.3-.12a189.38,189.38,0,0,0-22.16-47.9,11.17,11.17,0,0,0,.5,2.09,109.21,109.21,0,0,1,4.09,16.71"/>
  <path class="cls-1" d="M413.1,265C364.46,363.49,245,404,146.19,355.52A198.22,198.22,0,0,1,53.9,261.85,198.5,198.5,0,0,0,160.56,397.67c98.78,48.51,218.28,8,266.92-90.52A197.92,197.92,0,0,0,429,134.64,197.4,197.4,0,0,1,413.1,265"/>
  <path class="cls-2" d="M250,20.24v13a185.06,185.06,0,0,1,96.61,343.15,186.56,186.56,0,0,1-96.93,27.17A185.06,185.06,0,0,1,153,60.45,186.63,186.63,0,0,1,250,33.28l0-13m0,0c-73.31,0-143.83,40.64-178.41,110.66-48.48,98.18-8,217,90.48,265.31a198.36,198.36,0,0,0,87.63,20.43C323,416.64,393.48,376,428.06,306c48.48-98.18,8-217-90.48-265.31A198.36,198.36,0,0,0,250,20.24"/>
  <path class="cls-4" d="M249.37,13C363.07,13,455.24,105,455.24,218.34s-92.17,205.3-205.87,205.3S43.49,331.73,43.49,218.34,135.66,13,249.37,13m0-13A218.13,218.13,0,1,0,451.1,303.33,218.52,218.52,0,0,0,249.37,0"/>
  <path class="cls-4" d="M434.14,203.61A184.17,184.17,0,0,0,380.37,87.47,185.86,185.86,0,0,0,78.12,146.3a182.85,182.85,0,0,0-14,57.31Z"/>
  <path class="cls-3" d="M218.65,118.93h-2.17a1.81,1.81,0,0,1-1.81-1.8V98.81A1.81,1.81,0,0,1,216.48,97h2.17a1.81,1.81,0,0,1,1.8,1.81v18.32a1.81,1.81,0,0,1-1.8,1.8"/>
  <path class="cls-3" d="M164.36,135.82l-1.76,1.27a1.8,1.8,0,0,1-2.52-.4l-10.8-14.82a1.8,1.8,0,0,1,.4-2.52l1.75-1.27a1.81,1.81,0,0,1,2.53.4l10.8,14.82a1.8,1.8,0,0,1-.4,2.52"/>
  <path class="cls-3" d="M130.39,181.3l-.67,2.06a1.81,1.81,0,0,1-2.28,1.16L110,178.86a1.81,1.81,0,0,1-1.16-2.28l.67-2.05a1.81,1.81,0,0,1,2.28-1.16L129.23,179a1.8,1.8,0,0,1,1.16,2.27"/>
  <path class="cls-3" d="M325.64,174.53l.67,2.05a1.81,1.81,0,0,1-1.16,2.28l-17.47,5.66a1.81,1.81,0,0,1-2.28-1.16l-.67-2.06a1.8,1.8,0,0,1,1.16-2.27l17.47-5.66a1.81,1.81,0,0,1,2.28,1.16"/>
  <path class="cls-3" d="M283.69,118.08l1.75,1.27a1.8,1.8,0,0,1,.4,2.52L275,136.69a1.8,1.8,0,0,1-2.52.4l-1.76-1.27a1.81,1.81,0,0,1-.4-2.52l10.8-14.82a1.81,1.81,0,0,1,2.53-.4"/>
  <path class="cls-3" d="M201.89,112.2h0a1.81,1.81,0,0,1-2.07-1.5l-1.58-10a1.81,1.81,0,1,1,3.57-.57l1.58,10a1.8,1.8,0,0,1-1.5,2.06"/>
  <path class="cls-3" d="M186.6,115.86h0a1.81,1.81,0,0,1-2.28-1.16l-3.12-9.6a1.81,1.81,0,0,1,3.44-1.12l3.12,9.61a1.8,1.8,0,0,1-1.16,2.27"/>
  <path class="cls-3" d="M172.08,121.86h0a1.81,1.81,0,0,1-2.43-.79l-4.6-9a1.8,1.8,0,0,1,.79-2.42h0a1.8,1.8,0,0,1,2.43.79l4.6,9a1.81,1.81,0,0,1-.79,2.43"/>
  <path class="cls-3" d="M146.72,140.23h0a1.8,1.8,0,0,1-2.56,0L137,133.09a1.81,1.81,0,0,1,0-2.55h0a1.82,1.82,0,0,1,2.56,0l7.16,7.14a1.79,1.79,0,0,1,0,2.55"/>
  <path class="cls-3" d="M136.51,152.15h0a1.8,1.8,0,0,1-2.52.4l-8.2-5.94a1.8,1.8,0,0,1-.4-2.51h0a1.82,1.82,0,0,1,2.53-.39l8.19,5.93a1.8,1.8,0,0,1,.4,2.52"/>
  <path class="cls-3" d="M128.3,165.52h0a1.82,1.82,0,0,1-2.43.79l-9-4.59a1.8,1.8,0,0,1-.79-2.42h0a1.82,1.82,0,0,1,2.44-.79l9,4.58a1.81,1.81,0,0,1,.79,2.43"/>
  <path class="cls-3" d="M118.61,195.24h0a1.79,1.79,0,0,1-2.06,1.5l-10-1.58a1.8,1.8,0,1,1,.57-3.56l10,1.58a1.8,1.8,0,0,1,1.5,2.06"/>
  <path class="cls-3" d="M330.08,193.1h0a1.8,1.8,0,0,1-1.5,2.06l-10,1.58a1.8,1.8,0,1,1-.57-3.56l10-1.58a1.81,1.81,0,0,1,2.07,1.5"/>
  <path class="cls-3" d="M319.07,159.3h0a1.8,1.8,0,0,1-.79,2.42l-9,4.59a1.81,1.81,0,1,1-1.64-3.22l9-4.58a1.82,1.82,0,0,1,2.44.79"/>
  <path class="cls-3" d="M309.73,144.1h0a1.8,1.8,0,0,1-.4,2.51l-8.2,5.94a1.8,1.8,0,1,1-2.12-2.92l8.19-5.93a1.81,1.81,0,0,1,2.53.4"/>
  <path class="cls-3" d="M298.12,130.54h0a1.81,1.81,0,0,1,0,2.55L291,140.23a1.8,1.8,0,1,1-2.55-2.55l7.16-7.14a1.8,1.8,0,0,1,2.56,0"/>
  <path class="cls-3" d="M269.28,109.65h0a1.8,1.8,0,0,1,.79,2.42l-4.6,9a1.81,1.81,0,0,1-3.22-1.64l4.6-9a1.8,1.8,0,0,1,2.43-.79"/>
  <path class="cls-3" d="M252.76,102.83h0a1.79,1.79,0,0,1,1.16,2.27l-3.13,9.6a1.8,1.8,0,0,1-3.43-1.11l3.13-9.61a1.8,1.8,0,0,1,2.27-1.15"/>
  <path class="cls-3" d="M235.38,98.66h0a1.8,1.8,0,0,1,1.5,2.07l-1.58,10a1.81,1.81,0,0,1-3.57-.56l1.58-10a1.82,1.82,0,0,1,2.07-1.5"/>
  <path class="cls-2" d="M426.65,202.8a176.69,176.69,0,0,0-16.77-61A179.18,179.18,0,0,0,69.2,213.53a8.37,8.37,0,0,0,8.38,8.59h2.85A8.33,8.33,0,0,0,88.79,214a127.9,127.9,0,0,1,15.4-57,131.21,131.21,0,0,1,37.75-43.28,130.57,130.57,0,0,1,136.47-10.79,131.51,131.51,0,0,1,45.14,38.27,129.24,129.24,0,0,1,24.95,64.89,17.62,17.62,0,0,0,17.63,16H409a17.71,17.71,0,0,0,17.64-19.32"/>
  <path class="cls-4" d="M326.71,91.39,339.4,73.21a3.08,3.08,0,0,0-1-4.41,176,176,0,0,0-168.66-6.45,3.08,3.08,0,0,0-1.29,4.31l5,8.68,1,1.79a166.91,166.91,0,0,1,62.3-11.94,164.93,164.93,0,0,1,89.83,26.2"/>
  <path class="cls-4" d="M165.47,81.11l-1-1.71-4.69-8a3.05,3.05,0,0,0-4.25-1A175.63,175.63,0,0,0,84.5,156a3,3,0,0,0,2,4l2.48.74c14.06-34.61,41.55-63,76.52-79.61"/>
  <path class="cls-4" d="M85.55,170l-2.34-.69a3.1,3.1,0,0,0-3.86,2.14,174.17,174.17,0,0,0-6.45,42.19,4.67,4.67,0,0,0,4.68,4.78h1.16c-.06-1.65-.1-3.31-.1-5A139.5,139.5,0,0,1,85.55,170"/>
  <path class="cls-2" d="M423,203.31A175.22,175.22,0,0,0,352.09,77.86a3.11,3.11,0,0,0-4.39.72L334.84,97l-4.37,6.27-14.05,20.14a3.06,3.06,0,0,0,.27,3.85A134.55,134.55,0,0,1,326.52,139a132.64,132.64,0,0,1,25.68,66.86,13.92,13.92,0,0,0,13.92,12.56H409A14,14,0,0,0,423,203.31"/>
  <path class="cls-7" d="M184.34,89.4a134.41,134.41,0,0,1,120.84,26.95,3.1,3.1,0,0,0,4.53-.59l13.2-18.93,3.81-5.44a165,165,0,0,0-89.84-26.2,166.91,166.91,0,0,0-62.3,11.94L180.9,88a3.07,3.07,0,0,0,3.44,1.43"/>
  <path class="cls-7" d="M94.51,162.36a3,3,0,0,0,3.59-1.57,134.19,134.19,0,0,1,71.09-66.37,3,3,0,0,0,1.5-4.33l-5.22-9c-35,16.6-62.46,45-76.52,79.61l1.3.38Z"/>
  <path class="cls-7" d="M81.06,218.38a4.68,4.68,0,0,0,4-4.48,132.62,132.62,0,0,1,7.07-38.61,3.07,3.07,0,0,0-2.05-3.94l-3-.89L85.55,170a139.5,139.5,0,0,0-6.91,43.43c0,1.67,0,3.34.1,5h1.68c.22,0,.43,0,.64,0"/>
  <path class="cls-1" d="M176.9,47.8a186,186,0,0,0-98.78,98.5,182.85,182.85,0,0,0-14,57.31h370A184.12,184.12,0,0,0,380.36,87.47,186.18,186.18,0,0,0,176.9,47.8"/>
  <path class="cls-8" d="M249.13,33.26a185.76,185.76,0,0,1,171,113,182.54,182.54,0,0,1,11.45,38,16.38,16.38,0,0,1-16.15,19.33H82.82a16.38,16.38,0,0,1-16.15-19.33,182.54,182.54,0,0,1,11.45-38,185.52,185.52,0,0,1,171-113m0-13A198.19,198.19,0,0,0,53.82,181.9a29.43,29.43,0,0,0,29,34.75H415.44a29.42,29.42,0,0,0,29-34.75A197.28,197.28,0,0,0,389.61,78.25a198.26,198.26,0,0,0-140.48-58"/>
  <path class="cls-3" d="M381.5,24.6a15.36,15.36,0,0,0-10.6-4.19A16.57,16.57,0,0,0,360,24.58Q354.09,29.77,348.14,35l-.06.06q-7.35,6.41-14.7,12.83L305.25,72.46l-17,14.88L285,90.22l-1.13,1L248.65,122l-6.05,5.29c-5.8,5.08-13.4,11.72-21.23,18.55l-1.49.05a44.56,44.56,0,0,0-6.73.59c-16.47,3-28.36,13-34.39,28.68A43.71,43.71,0,0,0,180.05,210a45.47,45.47,0,0,0,34.62,25.92,45.7,45.7,0,0,0,23.5-2.72,44.91,44.91,0,0,0,28.65-43.57l26.82-33.68q5.89-7.25,11.81-14.48c5.81-7.12,11.82-14.48,17.73-21.76,5.05-6.22,10.18-12.56,15.13-18.68l0-.06c4.85-6,9.86-12.2,14.82-18.3s9.78-12,14.55-17.86l.12-.15c4.93-6,10-12.29,15-18.44A15.53,15.53,0,0,0,381.5,24.6"/>
  <path class="cls-7" d="M374.83,31.31c-2.39-2.24-5.95-2.15-8.62.19L339.56,54.76Q317,74.5,294.44,94.26L290,98.13,254.84,128.9l-6.05,5.29q-11.41,10-22.85,19.95a4.65,4.65,0,0,1-2.55.84c-2.87.26-5.81.09-8.62.61-13.31,2.45-22.44,10.28-27.19,22.7a34.17,34.17,0,0,0,1,27.39A35.91,35.91,0,0,0,234.53,224a35.51,35.51,0,0,0,22-39.76,34.59,34.59,0,0,0-16-23.79c-1.26-.81-2.54-1.59-3.81-2.39,11.73,3.65,19.56,11.38,23.74,22.92.29-.28.45-.39.57-.54l25-30.79q14.78-18.13,29.57-36.27,15-18.5,30-37,14.81-18.24,29.68-36.45a6.12,6.12,0,0,0-.47-8.6M236.22,192.89a15.11,15.11,0,1,1-12.84-17.1,15.2,15.2,0,0,1,12.84,17.1"/>
  <path class="cls-4" d="M236.71,158.08a38.88,38.88,0,0,1,9.65,4.48L375,31.49l-.18-.18c-2.39-2.24-5.95-2.15-8.62.19L339.56,54.76Q317,74.5,294.44,94.26L290,98.13,254.84,128.9l-6.05,5.29q-11.41,10-22.85,19.95a4.14,4.14,0,0,1-2.05.78c.87.06,1.74.15,2.61.28A36.52,36.52,0,0,1,238.23,159l-1.52-.95"/>
  <path class="cls-4" d="M190.91,216.23l9-8.84a26.27,26.27,0,0,1-5-19.74c2.15-14.44,11.78-26.09,26.05-29.31,7-1.59,20.29,2.52,23.79,5.26-2.85-2.44-5-3.52-8-5.52-2.73-1.78-6.29-4.6-9.84-5.12a39,39,0,0,0-36,63.27"/>
  <path class="cls-9" d="M135.92,198.61l0,0c.05.12.11.24.16.37s.12.24.17.36l.18.37c.05.12.11.24.17.36l-.18-.37c-.06-.13-.12-.25-.17-.37l-.18-.38c-.06-.12-.11-.25-.17-.37"/>
  <g>
    <path class="cls-2" d="M487.66,289.42V186.57c0-2.76-2.73-5-6.08-5H23.5c-6.84,0-12.39,4.55-12.39,10.16v97.68a4.79,4.79,0,0,0,2.54,4.06l15.8,9.26a7.09,7.09,0,0,0,4.5.87l6.22-.82c.56-.08,47.39-5.53,49.53-5.79,5.38-.54,10.77-1.06,16.14-1.55l7-.64h0l8.16-.67c3.63-.29,7.25-.57,10.88-.84l7.16-.53h0l8.15-.52c10.18-.66,20.52-1.22,30.73-1.68l2.11-.1,2.32-.1c10.16-.42,20.51-.76,30.74-1l2.41-.05,2,0c8.49-.17,17.11-.27,25.62-.31h6.17c3.05,0,6.11,0,9.16,0h2.19l2.24,0c3.64,0,7.27.07,10.91.13l4.45.07,4.59.09,10.9.27,4.62.13,4.42.15c3.63.12,7.26.26,10.89.4l2,.09,2.39.1c10.19.44,20.53,1,30.73,1.63l8.05.5h0l7.17.52c3.63.26,7.26.54,10.88.82l8.25.66h0l7,.63c3.62.32,7.25.66,10.87,1l8.2.78v0l5.32.55c3.62.38,33.78,3.87,43.93,5.22l6.21.82a7.1,7.1,0,0,0,4.51-.87l15.79-9.26a4.78,4.78,0,0,0,2.55-4.06"/>
    <path class="cls-4" d="M23.23,188.51h33l0,27L45,215.85V202.7h-.38l-9.81.19h-.35v23.61h.38l9.42-.46v14.2l-9.47.64-.33,0,0,38.16c-3.68.43-7.44.89-11.18,1.36Z"/>
    <path class="cls-4" d="M61.81,188.51H73l-.12,72.68.4,0c3.25-.27,6.55-.53,9.8-.78l.33,0,.13-71.84H94.81l-.17,84.39c-10.94.93-22,2-32.95,3.12Z"/>
    <path class="cls-4" d="M112.22,201.66h-.37l-12.36.16,0-13.31H136.2l0,12.87-12.38.14h-.35l-.15,69.14c-3.7.26-7.47.54-11.23.83Z"/>
    <path class="cls-4" d="M141,188.51h33L174,220c-2.89,4-5.76,8-8.52,11.82l-.34.46h.66l8.18-.2-.06,35.76c-11,.47-22.08,1.05-33,1.71Zm21.31,43.23-9.82.27h-.35l-.05,24.14.39,0c3.19-.14,6.5-.29,9.82-.42l.34,0,0-24Zm.07-30.6-9.82.08h-.36l0,18.08h.37l9.82-.19h.35l0-18Z"/>
    <path class="cls-4" d="M179.59,188.51h33l-.08,78.06c-11,.24-22.08.58-33,1ZM201,200.9l-9.82,0h-.36l-.08,53.79h.38l9.83-.26h.35l.07-53.57Z"/>
    <path class="cls-4" d="M218.17,188.51H229.4l0,65.48h.37c5.28-.06,10.59-.09,15.79-.11v12.27c-9.12,0-18.34.14-27.41.31Z"/>
    <path class="cls-4" d="M262.36,266.16c-3.2,0-6.43,0-9.61,0h-1.64V188.51h11.22Z"/>
    <path class="cls-4" d="M323,267.47c-3.72-.14-7.5-.27-11.24-.39l-.07-52.57-.7-.12c-3,5.57-6.22,11.59-9.9,18.41l0,.06,0,33.91c-3.76-.1-7.54-.19-11.24-.26l0-33.44,0-.06q-5-9.34-9.94-18.64l-.7.12,0,51.83c-3.71-.05-7.49-.09-11.25-.12l0-77.69h11.45c6,11.34,11,20.78,15.66,29.69l.06.13.92.22.13-.24c5.54-10.66,10.58-20.41,15.41-29.8h11.33Z"/>
    <path class="cls-4" d="M361.64,269.34c-10.95-.64-22.06-1.2-33-1.65l-.14-79.18h33l0,24.7-11.23-.2c0-3.83,0-11.81,0-11.81h-.36l-9.82-.08h-.37l0,20.87h.36l9.46.2,0,12.68q-4.71-.15-9.44-.27l-.38,0,0,21,.35,0c3.25.13,6.56.26,9.82.41l.38,0,0-11.82,11.23.44Z"/>
    <path class="cls-4" d="M390.31,271.26c-3.77-.28-7.54-.55-11.23-.8l-.14-69h-.36l-12.37-.13,0-12.84h36.69l0,13.27-12.36-.16h-.37Z"/>
    <path class="cls-4" d="M445.72,276.23c-3.68-.39-7.43-.77-11.15-1.14-3.56-13.21-7.22-26.63-10.88-39.88l-.06-.22h-.28l-4-.2-.38,0,.07,38.87c-3.75-.34-7.52-.67-11.22-1l-.17-84.14h33l.07,47.39-6.41-.35-.5,0,.12.4c4,13.48,8,27,11.77,40.31m-26.76-55h.35l9.81.35.38,0,0-19.47h-.36L419.3,202h-.37Z"/>
    <path class="cls-4" d="M482.17,280.42c-10.92-1.36-22-2.65-32.89-3.81l-.11-88.1h33Zm-21.71-16.77.32,0,9.79.95.41,0,0-61.77h-.36l-9.81-.19h-.37Z"/>
    <path class="cls-4" d="M44.24,226l-9.42.46-.38,0V202.9h.35l9.81-.19H45v13.15l11.21-.38,0-27h-33v48.92q10.36-1.4,21-2.68Z"/>
    <path class="cls-4" d="M73,188.51H61.81l-.06,44.24q5.58-.6,11.22-1.17Z"/>
    <path class="cls-4" d="M94.81,188.51H83.58l-.08,42q5.59-.53,11.23-1Z"/>
    <path class="cls-4" d="M123.44,201.52h.36l12.38-.14v-2.21l-.09-.19c-.05-.12-.11-.25-.17-.37l0,0c.05.12.11.24.16.37l.08.16,0-10.66H99.51l0,13.31,12.36-.16h.37l-.06,26.45q5.59-.44,11.23-.82Z"/>
    <path class="cls-4" d="M174,220l.06-31.47H141l-.08,37.64q14.69-.87,29.66-1.52L174,220m-11.58-.87-9.82.19h-.37l0-18.08h.36l9.82-.08h.37l0,18Z"/>
    <path class="cls-4" d="M190.8,201h.36l9.82,0h.36l0,22.68c3.73-.1,7.48-.19,11.23-.26l0-34.8h-33l-.06,35.76q5.59-.21,11.24-.39Z"/>
    <path class="cls-4" d="M229.4,188.51H218.17l0,34.69,11.24-.16Z"/>
    <path class="cls-4" d="M279.17,214.49l.7-.13,4.71,8.85q10.77.19,21.42.5c1.76-3.27,3.42-6.36,5-9.32l.7.12v9.37q5.64.18,11.23.4l-.05-35.77H311.56c-4.83,9.39-9.87,19.14-15.41,29.8l-.13.24-.92-.22-.06-.13c-4.68-8.91-9.66-18.35-15.66-29.69H267.93V223c3.76,0,7.5.08,11.24.14Z"/>
    <path class="cls-4" d="M349.58,222.19l-9.46-.2h-.36l0-20.86h.37l9.82.08h.36s0,8,0,11.81l11.23.2,0-24.7h-33l.06,36q10.61.44,21.06,1Z"/>
    <path class="cls-4" d="M390.17,201.62h.37l12.35.15,0-13.27H366.18l0,12.84,12.37.13h.36L379,227.3q5.64.39,11.23.82Z"/>
    <path class="cls-4" d="M440.67,188.51h-33l.09,41.05q16.74,1.45,33,3.22Zm-11.55,33.11-9.81-.35H419l0-19.25h.37l9.81.15h.36l0,19.47Z"/>
    <path class="cls-4" d="M460.41,202.7h.37l9.81.19H471v33.47q5.64.74,11.21,1.5V188.51h-33l.06,45.22q5.64.65,11.21,1.32Z"/>
  </g>
</svg>
