<svg xmlns="http://www.w3.org/2000/svg" x="0px" y="0px"
	 width="0" height="0" xml:space="preserve" class="hide">
 <defs>
    <style>
  
    </style>

  </defs>
    <symbol id="icon-zig-zag-dash" viewBox="0 0 100 100" >
      <g>
        <path d="M88.83,11.07A2.49,2.49,0,0,0,88,10.5L61.81.2a2.58,2.58,0,0,0-3.13.93,2.49,2.49,0,0,0,1.19,3.68l20.53,8.1a.06.06,0,0,1,0,.08l0,0L12.07,42.81a2.64,2.64,0,0,0-1.62,2,2.5,2.5,0,0,0,1.71,2.71l64.1,21.34a.06.06,0,0,1,0,.08l0,0L45.91,82A22,22,0,0,1,49,86.13L84.37,70.89a2.48,2.48,0,0,0,.44-.25h0a2.54,2.54,0,0,0,.34-.29,1.41,1.41,0,0,0,.1-.13,2.47,2.47,0,0,0,.21-.27c0-.05.05-.11.08-.16a2.53,2.53,0,0,0,.14-.3v-.21a2.6,2.6,0,0,0,.06-.26,2.23,2.23,0,0,0,0-.24,2.34,2.34,0,0,0,.09-.27v-.25a.41.41,0,0,0,0-.23,2.68,2.68,0,0,0-.08-.26.19.19,0,0,0,0-.15v-.06a2.34,2.34,0,0,0-.13-.24,1.68,1.68,0,0,0-.12-.19L85.28,67l-.17-.18-.18-.14-.21-.15-.19-.1-.25-.11h-.06L20.12,44.94a.06.06,0,0,1,0-.08l0,0L82.49,17.61a.06.06,0,0,1,.07.07l-8.1,20.53A2.5,2.5,0,1,0,79.11,40L89.39,13.74a2.49,2.49,0,0,0,.18-1v0A2.42,2.42,0,0,0,88.83,11.07Z" transform="translate(0 0)"/>
        <path d="M13.18,85.92l5,1.15L20.5,84a.31.31,0,0,1,.55.11,5.9,5.9,0,0,0,1.11,2.29l.77,1a.57.57,0,0,1,0,.76l-2.46,2.46a2,2,0,0,1-1.69.67l-.23,0-6.27-1.44a2,2,0,0,1-1.48-2.36q0-.09.05-.19A2,2,0,0,1,13.18,85.92ZM36.47,67.3a3.64,3.64,0,1,0,2.26,1.61A3.64,3.64,0,0,0,36.47,67.3Zm4.94,16.47a1.61,1.61,0,0,0,.6-1.13,1.67,1.67,0,0,0-1.49-1.74l-4.89-.64-1.36-3.35A4.21,4.21,0,0,0,32.75,75,33.55,33.55,0,0,0,24,70.73l-.5-.16A1.6,1.6,0,0,0,21.9,71l-4.21,4.16a1.67,1.67,0,0,0-.14,2.27,1.62,1.62,0,0,0,2.28.16l.08-.07L23.46,74l2.89,1.51-3,4.52a4.59,4.59,0,0,0,.35,5.19L28,90.63l-3,6.5a2,2,0,0,0,.47,2.4,2,2,0,0,0,.87.43l.23,0a2,2,0,0,0,2-1.14l3.5-7.67a1.94,1.94,0,0,0-.21-2l-2.7-5.08,2.5-4.37,1.26,2.58a1.61,1.61,0,0,0,1.16,1l.15,0,5.93.77A1.58,1.58,0,0,0,41.41,83.77Z" transform="translate(0 0)"/>
      </g>
    </symbol>
    <symbol id="icon-zig-zag-dribble" viewBox="120 0 100 100">
      <g>
        <path d="M208.83,11.07a2.5,2.5,0,0,0-.87-.57L181.81.2a2.58,2.58,0,0,0-3.13.93,2.49,2.49,0,0,0,1.19,3.68l20.53,8.1a.06.06,0,0,1,0,.08l0,0-68.34,29.8a2.64,2.64,0,0,0-1.62,2,2.5,2.5,0,0,0,1.71,2.71l64.1,21.34a.06.06,0,0,1,0,.08l0,0L165.91,82a22,22,0,0,1,3.09,4.1l35.37-15.24a2.48,2.48,0,0,0,.44-.25h0a2.54,2.54,0,0,0,.34-.29,1.41,1.41,0,0,0,.1-.13,2.47,2.47,0,0,0,.21-.27c0-.05.05-.11.08-.16a2.53,2.53,0,0,0,.14-.3v-.21a2.6,2.6,0,0,0,.06-.26,2.23,2.23,0,0,0,0-.24,2.34,2.34,0,0,0,.09-.27v-.25a.41.41,0,0,0,0-.23,2.68,2.68,0,0,0-.08-.26.19.19,0,0,0,0-.15v-.06a2.34,2.34,0,0,0-.13-.24,1.68,1.68,0,0,0-.12-.19l-.16-.18-.17-.18-.18-.14-.21-.15-.19-.1-.25-.11h-.06l-64.1-21.34a.06.06,0,0,1,0-.08l0,0,62.37-27.23a.06.06,0,0,1,.07.07l-8.1,20.53A2.5,2.5,0,1,0,199.11,40l10.28-26.31a2.49,2.49,0,0,0,.18-1v0A2.42,2.42,0,0,0,208.83,11.07Z" transform="translate(0 0)"/>
        <path d="M133.18,85.92l5,1.15L140.5,84a.31.31,0,0,1,.55.11,5.9,5.9,0,0,0,1.11,2.29l.77,1a.57.57,0,0,1,0,.76l-2.46,2.46a2,2,0,0,1-1.69.67l-.23,0-6.27-1.44a2,2,0,0,1-1.48-2.36q0-.09.05-.19A2,2,0,0,1,133.18,85.92ZM156.47,67.3a3.64,3.64,0,1,0,2.26,1.61A3.64,3.64,0,0,0,156.47,67.3Zm4.94,16.47a1.61,1.61,0,0,0,.6-1.13,1.67,1.67,0,0,0-1.49-1.74l-4.89-.64-1.36-3.35A4.21,4.21,0,0,0,152.75,75,33.55,33.55,0,0,0,144,70.73l-.5-.16a1.6,1.6,0,0,0-1.63.38l-4.21,4.16a1.67,1.67,0,0,0-.14,2.27,1.62,1.62,0,0,0,2.28.16l.08-.07L143.46,74l2.89,1.51-3,4.52a4.59,4.59,0,0,0,.35,5.19L148,90.63l-3,6.5a2,2,0,0,0,.47,2.4,2,2,0,0,0,.87.43l.23,0a2,2,0,0,0,2-1.14l3.5-7.67a1.94,1.94,0,0,0-.21-2l-2.7-5.08,2.5-4.37,1.26,2.58a1.61,1.61,0,0,0,1.16,1l.15,0,5.93.77A1.58,1.58,0,0,0,161.41,83.77Zm-4.65,9A3.64,3.64,0,1,0,159,94.42a3.64,3.64,0,0,0-2.27-1.62Z" transform="translate(0 0)"/>
      </g>
    </symbol>
    <symbol id="icon-wall-ball" viewBox="0 120 100 100">
      <g>
        <circle  cx="29.01" cy="158.25" r="9.47"/>
        <g>
          <path d="M30.92,182.38l.78.19a2,2,0,0,1,1,2.68L25,201.36a2,2,0,0,1-3.63-1.73L29,183.53C29.8,182.49,29.24,183,30.92,182.38Z" transform="translate(0 0)"/>
          <path d="M30.58,170.43h.94l.68.42a2,2,0,0,1,.09,2.85l-5.65,6A2,2,0,0,1,23.71,177l5.65-6C30.09,170.42,29.68,170.59,30.58,170.43Z" transform="translate(0 0)"/>
          <path d="M40.9,166.32c1.75.35,1.13-.06,2.05.86l4,6a2,2,0,1,1-3.35,2.23l-4-6a2,2,0,0,1,.56-2.79Z" transform="translate(0 0)"/>
          <path d="M55.23,144.15c1.69.56,1.13.08,1.93,1.11a2,2,0,0,1-.9,2.7l-8,4a2,2,0,0,1-1.8-3.6l8-4Z" transform="translate(0 0)"/>
          <path d="M26.91,128.64c1.65.67,1.12.15,1.85,1.23l4.56,10.81a2,2,0,1,1-3.71,1.56l-4.56-10.81a2,2,0,0,1,1.07-2.64Z" transform="translate(0 0)"/>
          <path d="M36.53,120a2,2,0,0,1,2.32,1.65l2.4,14.09a2,2,0,1,1-4,.68l-2.4-14.09A2,2,0,0,1,36.53,120Z" transform="translate(0 0)"/>
          <path d="M12.13,135.21c1.78,0,1.09-.28,2.18.44l5.13,5.13a2,2,0,0,1-2.85,2.85l-5.13-5.13a2,2,0,0,1,0-2.85Z" transform="translate(0 0)"/>
        </g>
        <path d="M46.86,139.63H69v12.07H56.93a2,2,0,1,0,0,4H85.1V167.8H54.91a2,2,0,0,0,0,4H69V183.9H54.91a2,2,0,0,0-2,2V200H40.83v-4a2,2,0,0,0-4,0v24H89.12v-1.89h0V202h0v-16.1h0v-16.1h0v-16.1h0v-16.1h0a2,2,0,0,0-2-2H46.86a2,2,0,1,0,0,4ZM69,216.1H40.83V204H69Zm16.1,0H73V204H85.1Zm0-16.1H56.93V187.93H85.1Zm0-16.1H73V171.83H85.1ZM73,139.63H85.1v12.07H73Z" transform="translate(0 0)"/>
      </g>
  </symbol>
    <symbol id="icon-wall-ball-7m" viewBox="120 240 100 100">
      <g>
        <path d="M172,248.06H120v1.88h0v16h0v16h0V290h0v8.06h0v16h0v16h0v1.88H220v-1.88h0v-16h0v-16h0V290h0v-8.06h0v-16h0v-16h0v-1.88Zm32,3.88h12v12H204Zm12,16v12H188v-12Zm-44-16h28v12H172Zm-32,0h28v12H140Zm-16,0h12v12H124Zm0,16h28v12H124ZM124,290v-6.06h12V290h0v6.06H124V290Zm28,10.06v12H124v-12Zm-16,28H124v-12h12Zm32,0H140v-12h28Zm-12-16v-14a2,2,0,0,0-2-2H140V290h0v-6.06h14a2,2,0,0,0,2-2v-14h28v14a2,2,0,0,0,2,2h14V290h0v6.06H186a2,2,0,0,0-2,2v14Zm44,16H172v-12h28Zm16,0H204v-12h12Zm0-16H188v-12h28ZM216,290v6.06H204V290h0v-6.06h12V290Z" transform="translate(0 0)"/>
        <path d="M181.58,288.73h2v2.55h-2a11.61,11.61,0,0,1-10.31,10.31v2h-2.55v-2a11.61,11.61,0,0,1-10.31-10.31h-2v-2.55h2a11.61,11.61,0,0,1,10.31-10.31v-2h2.55v2a11.61,11.61,0,0,1,10.31,10.31Zm-18,7.67A9.08,9.08,0,1,0,161,290,8.71,8.71,0,0,0,163.6,296.4Zm3-9.82a4.83,4.83,0,1,1-1.43,3.43A4.67,4.67,0,0,1,166.57,286.57Z" transform="translate(0 0)"/>
      </g>
  </symbol>
  <symbol id="icon-power-kick" viewBox="0 240 100 100">
      <g>
        <path d="M47.81,291a2.23,2.23,0,0,0-1.7.15L28.34,300.4a2.23,2.23,0,0,0,2.07,4l17.78-9.28a2.23,2.23,0,0,0-.36-4.11Z" transform="translate(0 0)"/>
        <path d="M58.25,300.2a2.22,2.22,0,0,0-1.71.16L16.15,321.72a2.23,2.23,0,1,0,2.09,3.94L58.63,304.3a2.23,2.23,0,0,0-.38-4.1Z" transform="translate(0 0)"/>
        <path d="M45.88,277.38a2.22,2.22,0,0,0-1.71.16l-43,22.73a2.23,2.23,0,0,0,2.09,3.94l43-22.73a2.23,2.23,0,0,0-.38-4.1Z" transform="translate(0 0)"/>
        <circle  cx="76.97" cy="277.1" r="23.02" transform="translate(-210.46 267.6) rotate(-72.58)"/>
      </g>
    </symbol>
    <symbol id="icon-broad-jump" viewBox="120 120 100 100">
      <g>
        <path d="M202.28,173.8l-.43-.17a153.25,153.25,0,0,0-48-10.94c3.49-3,7.32-5.6,10.3-8.18-1.72-.51-3.46-1-5.22-1.3h0l-.17,0a6.11,6.11,0,0,1,1-12.15h0a6.17,6.17,0,0,1,1,.08h.05a66,66,0,0,1,8.18,2,103.51,103.51,0,0,1,20.87,9.15l0,0,1.47.88a6.07,6.07,0,0,1,2.79,3.76,6.19,6.19,0,0,1,.14.81,3.89,3.89,0,0,0-1.06-5.71c-14.07-8.52-25.26-11.77-28.91-12.68-3.08-1.2-7.17-1.07-11.32,1.66-8.67,5.77-13.15,10.42-18.78,19.81-3.6,7.17-.66,13.07,3.77,13.8a16.84,16.84,0,0,0,2.41.25,6.09,6.09,0,0,0,1.36,0c.16,0,2-.17,5.1-.17A138.2,138.2,0,0,1,197.27,185a6.12,6.12,0,1,0,5-11.16Z" transform="translate(0 0)"/>
        <path d="M190.1,155.06a101.18,101.18,0,0,0-21.88-9.81,63.6,63.6,0,0,0-7.92-2,3.91,3.91,0,0,0-1.23,7.73h.09a58.15,58.15,0,0,1,6.53,1.65,93.13,93.13,0,0,1,20.4,9.11,3.91,3.91,0,0,0,4-6.72Z" transform="translate(0 0)"/>
        <path d="M186.83,139.54A11,11,0,1,0,171.34,138h0a11,11,0,0,0,15.48,1.57Z" transform="translate(0 0)"/>
      </g>
      <path d="M209.17,220H130.83a2,2,0,0,1,0-3.91h78.34a2,2,0,0,1,0,3.91Z" transform="translate(0 0)"/>
    </symbol>
    <symbol id="icon-triangle-dash-ccw" viewBox="0 600 100 100">
      <path d="M93.69,691.4H6.31a6.29,6.29,0,0,1-5.42-9.49l9.22-15.53a2.5,2.5,0,1,1,4.3,2.55L5.19,684.46a1.26,1.26,0,0,0,0,1.29,1.28,1.28,0,0,0,1.13.66H93.69a1.28,1.28,0,0,0,1.13-.66,1.26,1.26,0,0,0,0-1.29L51.12,610.88a1.31,1.31,0,0,0-2.24,0l-14,23.61a2.5,2.5,0,0,1-4.3-2.55l14-23.61a6.31,6.31,0,0,1,10.84,0l43.69,73.59a6.29,6.29,0,0,1-5.42,9.49Z" transform="translate(0 0)"/>
      <path d="M26.83,668.92l5,1.15,2.3-3.11a.31.31,0,0,1,.55.11,5.9,5.9,0,0,0,1.11,2.29l.77,1a.57.57,0,0,1,0,.76l-2.46,2.46a2,2,0,0,1-1.69.67l-.23,0-6.27-1.44a2,2,0,0,1-1.48-2.36q0-.09.05-.19A2,2,0,0,1,26.83,668.92ZM50.12,650.3a3.64,3.64,0,1,0,2.26,1.61A3.64,3.64,0,0,0,50.12,650.3Zm4.94,16.47a1.61,1.61,0,0,0,.6-1.13,1.67,1.67,0,0,0-1.49-1.74l-4.89-.64-1.36-3.35A4.21,4.21,0,0,0,46.4,658a33.55,33.55,0,0,0-8.72-4.28l-.5-.16a1.6,1.6,0,0,0-1.63.38l-4.21,4.16a1.67,1.67,0,0,0-.14,2.27,1.62,1.62,0,0,0,2.28.16l.08-.07L37.11,657,40,658.48,37,663a4.59,4.59,0,0,0,.35,5.19l4.26,5.43-3,6.5a2,2,0,0,0,.47,2.4,2,2,0,0,0,.87.43l.23,0a2,2,0,0,0,2-1.14l3.5-7.67a1.94,1.94,0,0,0-.21-2l-2.7-5.08,2.5-4.37,1.26,2.58a1.61,1.61,0,0,0,1.16,1l.15,0,5.93.77A1.58,1.58,0,0,0,55.06,666.77Z" transform="translate(0 0)"/>
      <path d="M50.5,637H31.86a2.5,2.5,0,0,1-2.26-1.44l-8-17a2.5,2.5,0,0,1,4.52-2.13L33.45,632H50.5a2.5,2.5,0,0,1,0,5Z" transform="translate(0 0)"/>
    </symbol>
    <symbol id="icon-triangle-dash" viewBox="0 480 100 100">
      <path d="M6.31,572.4H93.69a6.29,6.29,0,0,0,5.42-9.49l-9.22-15.53a2.5,2.5,0,1,0-4.3,2.55l9.22,15.53a1.26,1.26,0,0,1,0,1.29,1.28,1.28,0,0,1-1.13.66H6.31a1.28,1.28,0,0,1-1.13-.66,1.26,1.26,0,0,1,0-1.29l43.69-73.59a1.31,1.31,0,0,1,2.24,0l14,23.61a2.5,2.5,0,1,0,4.3-2.55l-14-23.61a6.31,6.31,0,0,0-10.84,0L.89,562.91a6.29,6.29,0,0,0,5.42,9.49Z" transform="translate(0 0)"/>
      <path d="M75.55,551.2q0,.09.05.19a2,2,0,0,1-1.48,2.36l-6.27,1.44-.23,0a2,2,0,0,1-1.69-.67l-2.46-2.46a.57.57,0,0,1,0-.76l.77-1a5.9,5.9,0,0,0,1.11-2.29.31.31,0,0,1,.55-.11l2.3,3.11,5-1.15A2,2,0,0,1,75.55,551.2ZM47.62,532.91a3.64,3.64,0,1,0,2.26-1.61A3.64,3.64,0,0,0,47.62,532.91ZM46.18,548.1l5.93-.77.15,0a1.61,1.61,0,0,0,1.16-1l1.26-2.58,2.5,4.37-2.7,5.08a1.94,1.94,0,0,0-.21,2l3.5,7.67a2,2,0,0,0,2,1.14l.23,0a2,2,0,0,0,.87-.43,2,2,0,0,0,.47-2.4l-3-6.5,4.26-5.43A4.59,4.59,0,0,0,63,544l-3-4.52L62.89,538l3.54,3.49.08.07a1.62,1.62,0,0,0,2.28-.16,1.67,1.67,0,0,0-.14-2.27L64.45,535a1.6,1.6,0,0,0-1.63-.38l-.5.16A33.55,33.55,0,0,0,53.6,539a4.21,4.21,0,0,0-1.52,1.89l-1.36,3.35-4.89.64a1.67,1.67,0,0,0-1.49,1.74,1.61,1.61,0,0,0,.6,1.13A1.58,1.58,0,0,0,46.18,548.1Z" transform="translate(0 0)"/>
      <path d="M49.5,518H68.14a2.5,2.5,0,0,0,2.26-1.44l8-17a2.5,2.5,0,0,0-4.52-2.13L66.55,513H49.5a2.5,2.5,0,0,0,0,5Z" transform="translate(0 0)"/>
    </symbol>
    <symbol id="icon-triangle-dribble" viewBox="120 480 100 100">
      <g>
        <path d="M126.31,572.4h87.39a6.29,6.29,0,0,0,5.42-9.49l-9.22-15.53a2.5,2.5,0,1,0-4.3,2.55l9.22,15.53a1.26,1.26,0,0,1,0,1.29,1.28,1.28,0,0,1-1.13.66H126.31a1.28,1.28,0,0,1-1.13-.66,1.26,1.26,0,0,1,0-1.29l43.69-73.59a1.31,1.31,0,0,1,2.24,0l14,23.61a2.5,2.5,0,1,0,4.3-2.55l-14-23.61a6.31,6.31,0,0,0-10.84,0l-43.69,73.59a6.29,6.29,0,0,0,5.42,9.49Z" transform="translate(0 0)"/>
        <path d="M195.55,551.2q0,.09.05.19a2,2,0,0,1-1.48,2.36l-6.27,1.44-.23,0a2,2,0,0,1-1.69-.67l-2.46-2.46a.57.57,0,0,1,0-.76l.77-1a5.9,5.9,0,0,0,1.11-2.29.31.31,0,0,1,.55-.11l2.3,3.11,5-1.15A2,2,0,0,1,195.55,551.2Zm-27.93-18.29a3.64,3.64,0,1,0,2.26-1.61A3.64,3.64,0,0,0,167.62,532.91Zm-1.44,15.19,5.93-.77.15,0a1.61,1.61,0,0,0,1.16-1l1.26-2.58,2.5,4.37-2.7,5.08a1.94,1.94,0,0,0-.21,2l3.5,7.67a2,2,0,0,0,2,1.14l.23,0a2,2,0,0,0,.87-.43,2,2,0,0,0,.47-2.4l-3-6.5,4.26-5.43A4.59,4.59,0,0,0,183,544l-3-4.52,2.89-1.51,3.54,3.49.08.07a1.62,1.62,0,0,0,2.28-.16,1.67,1.67,0,0,0-.14-2.27L184.45,535a1.6,1.6,0,0,0-1.63-.38l-.5.16A33.55,33.55,0,0,0,173.6,539a4.21,4.21,0,0,0-1.52,1.89l-1.36,3.35-4.89.64a1.67,1.67,0,0,0-1.49,1.74,1.61,1.61,0,0,0,.6,1.13A1.58,1.58,0,0,0,166.18,548.1Z" transform="translate(0 0)"/>
        <path d="M169.5,518h18.64a2.5,2.5,0,0,0,2.26-1.44l8-17a2.5,2.5,0,0,0-4.52-2.13L186.55,513H169.5a2.5,2.5,0,0,0,0,5Z" transform="translate(0 0)"/>
      </g>
      <path d="M168.76,556.8a3.64,3.64,0,1,0,2.27,1.62,3.64,3.64,0,0,0-2.27-1.62Z" transform="translate(0 0)"/>
      <path d="M149.68,451.87a3.64,3.64,0,1,0,2.27,1.62,3.64,3.64,0,0,0-2.27-1.62Z" transform="translate(0 0)"/>
    </symbol>
    <symbol id="icon-triangle-dribble-ccw" viewBox="120 600 100 100">
      <g>
        <path d="M213.69,693.08H126.31a6.29,6.29,0,0,1-5.42-9.49l9.22-15.53a2.5,2.5,0,1,1,4.3,2.55l-9.22,15.53a1.26,1.26,0,0,0,0,1.29,1.28,1.28,0,0,0,1.13.66h87.39a1.28,1.28,0,0,0,1.13-.66,1.26,1.26,0,0,0,0-1.29l-43.69-73.59a1.31,1.31,0,0,0-2.24,0l-14,23.61a2.5,2.5,0,0,1-4.3-2.55l14-23.61a6.31,6.31,0,0,1,10.84,0l43.69,73.59a6.29,6.29,0,0,1-5.42,9.49Z" transform="translate(0 0)"/>
        <path d="M146.83,670.6l5,1.15,2.3-3.11a.31.31,0,0,1,.55.11,5.9,5.9,0,0,0,1.11,2.29l.77,1a.57.57,0,0,1,0,.76l-2.46,2.46a2,2,0,0,1-1.69.67l-.23,0-6.27-1.44a2,2,0,0,1-1.48-2.36q0-.09.05-.19A2,2,0,0,1,146.83,670.6ZM170.12,652a3.64,3.64,0,1,0,2.26,1.61A3.64,3.64,0,0,0,170.12,652Zm4.94,16.47a1.61,1.61,0,0,0,.6-1.13,1.67,1.67,0,0,0-1.49-1.74l-4.89-.64-1.36-3.35a4.21,4.21,0,0,0-1.52-1.89,33.55,33.55,0,0,0-8.72-4.28l-.5-.16a1.6,1.6,0,0,0-1.63.38l-4.21,4.16a1.67,1.67,0,0,0-.14,2.27,1.62,1.62,0,0,0,2.28.16l.08-.07,3.54-3.49,2.89,1.51-3,4.52a4.59,4.59,0,0,0,.35,5.19l4.26,5.43-3,6.5a2,2,0,0,0,.47,2.4,2,2,0,0,0,.87.43l.23,0a2,2,0,0,0,2-1.14l3.5-7.67a1.94,1.94,0,0,0-.21-2l-2.7-5.08,2.5-4.37,1.26,2.58a1.61,1.61,0,0,0,1.16,1l.15,0,5.93.77A1.58,1.58,0,0,0,175.06,668.44Z" transform="translate(0 0)"/>
        <path d="M170.5,638.68H151.86a2.5,2.5,0,0,1-2.26-1.44l-8-17a2.5,2.5,0,0,1,4.52-2.13l7.32,15.56H170.5a2.5,2.5,0,0,1,0,5Z" transform="translate(0 0)"/>
        <path d="M171.24,677.48a3.65,3.65,0,1,0,4.36,2.74,3.65,3.65,0,0,0-4.36-2.74Z" transform="translate(0 0)"/>
      </g>
    </symbol>
    <symbol id="icon-step-ladder-dash" viewBox="0 360 100 100">
      <g>
        <path d="M98.05,393.09,83.18,378.21a2.66,2.66,0,0,0-1.88-.78,2.62,2.62,0,0,0-1,.2,2.67,2.67,0,0,0-.87.58L64.57,393.07a2.65,2.65,0,1,0,3.74,3.74l10.34-10.33v46.43a13.85,13.85,0,0,1-27.71,0V380.09a19.16,19.16,0,1,0-38.31,0v30.74a2.65,2.65,0,0,0,5.3,0V380.09a13.85,13.85,0,0,1,27.71,0v52.81a19.16,19.16,0,1,0,38.31,0V386.48l10.32,10.32a2.64,2.64,0,0,0,3.74,0,2.55,2.55,0,0,0,.79-1.86A2.7,2.7,0,0,0,98.05,393.09Z" transform="translate(0 0)"/>
        <path d="M3.68,445l5,1.15L11,443a.31.31,0,0,1,.55.11,5.9,5.9,0,0,0,1.11,2.29l.77,1a.57.57,0,0,1,0,.76l-2.46,2.46a2,2,0,0,1-1.69.67l-.23,0-6.27-1.44a2,2,0,0,1-1.48-2.36q0-.09.05-.19A2,2,0,0,1,3.68,445ZM27,426.36A3.64,3.64,0,1,0,29.23,428,3.64,3.64,0,0,0,27,426.36Zm4.94,16.47a1.61,1.61,0,0,0,.6-1.13A1.67,1.67,0,0,0,31,440l-4.89-.64L24.77,436a4.21,4.21,0,0,0-1.52-1.89,33.55,33.55,0,0,0-8.72-4.28l-.5-.16a1.6,1.6,0,0,0-1.63.38l-4.21,4.16a1.67,1.67,0,0,0-.14,2.27,1.62,1.62,0,0,0,2.28.16l.08-.07L14,433l2.89,1.51-3,4.52a4.59,4.59,0,0,0,.35,5.19l4.26,5.43-3,6.5a2,2,0,0,0,.47,2.4,2,2,0,0,0,.87.43l.23,0a2,2,0,0,0,2-1.14l3.5-7.67a1.94,1.94,0,0,0-.21-2l-2.7-5.08,2.5-4.37,1.26,2.58a1.61,1.61,0,0,0,1.16,1l.15,0,5.93.77A1.58,1.58,0,0,0,31.91,442.83Z" transform="translate(0 0)"/>
      </g>
    </symbol>
    <symbol id="icon-step-ladder-dribble" viewBox="120 360 100 100">
      <g>
        <path d="M218.05,393.09l-14.87-14.87a2.66,2.66,0,0,0-1.88-.78,2.62,2.62,0,0,0-1,.2,2.67,2.67,0,0,0-.87.58l-14.85,14.85a2.65,2.65,0,1,0,3.74,3.74l10.34-10.33v46.43a13.85,13.85,0,1,1-27.71,0V380.09a19.16,19.16,0,1,0-38.31,0v30.74a2.65,2.65,0,0,0,5.3,0V380.09a13.85,13.85,0,0,1,27.71,0v52.81a19.16,19.16,0,1,0,38.31,0V386.48l10.32,10.32a2.64,2.64,0,0,0,3.74,0,2.55,2.55,0,0,0,.79-1.86A2.7,2.7,0,0,0,218.05,393.09Z" transform="translate(0 0)"/>
        <path d="M123.68,445l5,1.15L131,443a.31.31,0,0,1,.55.11,5.9,5.9,0,0,0,1.11,2.29l.77,1a.57.57,0,0,1,0,.76l-2.46,2.46a2,2,0,0,1-1.69.67l-.23,0-6.27-1.44a2,2,0,0,1-1.48-2.36q0-.09.05-.19A2,2,0,0,1,123.68,445ZM147,426.36a3.64,3.64,0,1,0,2.26,1.61A3.64,3.64,0,0,0,147,426.36Zm4.94,16.47a1.61,1.61,0,0,0,.6-1.13A1.67,1.67,0,0,0,151,440l-4.89-.64L144.77,436a4.21,4.21,0,0,0-1.52-1.89,33.55,33.55,0,0,0-8.72-4.28l-.5-.16a1.6,1.6,0,0,0-1.63.38l-4.21,4.16a1.67,1.67,0,0,0-.14,2.27,1.62,1.62,0,0,0,2.28.16l.08-.07L134,433l2.89,1.51-3,4.52a4.59,4.59,0,0,0,.35,5.19l4.26,5.43-3,6.5a2,2,0,0,0,.47,2.4,2,2,0,0,0,.87.43l.23,0a2,2,0,0,0,2-1.14l3.5-7.67a1.94,1.94,0,0,0-.21-2l-2.7-5.08,2.5-4.37,1.26,2.58a1.61,1.61,0,0,0,1.16,1l.15,0,5.93.77A1.58,1.58,0,0,0,151.91,442.83Z" transform="translate(0 0)"/>
        <path d="M149.68,451.87a3.64,3.64,0,1,0,2.27,1.62,3.64,3.64,0,0,0-2.27-1.62Z" transform="translate(0 0)"/>
      </g>
    </symbol>


    <symbol id="icon-checkmark" viewBox="0 0 100 100">
      <path d="M50,4.32A45.68,45.68,0,1,1,4.32,50,45.73,45.73,0,0,1,50,4.32M50,0a50,50,0,1,0,50,50A50,50,0,0,0,50,0Z"  transform="translate(0 0)"/>
      <path d="M37.65,74,21,57.39a2.16,2.16,0,0,1,3.06-3.06l13.6,13.6L74.4,31.19a2.16,2.16,0,1,1,3.06,3.06Z" transform="translate(0 0)"/>
    </symbol>

</svg>
