<svg xmlns="http://www.w3.org/2000/svg" viewBox="0 0 220 220">
  <defs>
    <style>
      .blue-fill {
        fill: #06bee7;
      }

      .white-fill {
        fill: #fff;
      }
    </style>
  </defs>
  <title>home-icon-screen-group</title>
  <g id="home-icon-screen-group">
    <g>
      <circle class="blue-fill" cx="110.03" cy="110" r="106.5"/>
      <path class="white-fill" d="M61,171.7V126.77c0-.14,0-.27,0-.41s0-.16,0-.23V110.42L55.72,120.8A6,6,0,1,1,45,115.3L55.45,95a6.4,6.4,0,0,1,.62-1,7,7,0,0,1,6.57-4.68H81.18l-9.35,18.22A12.37,12.37,0,0,0,77,124.22a12.07,12.07,0,0,0,11.63-.33l.24-.16v48H76.71V133.08H73.54V171.7Zm33.45,0v-49c0-.15,0-.3,0-.45V104.7l-5.87,11.43a6.64,6.64,0,1,1-11.8-6.06L88.33,87.64A7.51,7.51,0,0,1,89,86.57a7.67,7.67,0,0,1,7.24-5.16h27.57a7.67,7.67,0,0,1,7.24,5.16,7.06,7.06,0,0,1,.68,1.07l11.51,22.43a6.64,6.64,0,1,1-11.8,6.06l-5.87-11.43V122a6.42,6.42,0,0,1,0,.66v49H111.68v-42h-3.32v42Zm36.67,0v-48l.27.19a12.08,12.08,0,0,0,11.63.33,12.37,12.37,0,0,0,5.18-16.7L138.89,89.3h18.55A7,7,0,0,1,164,94a6.82,6.82,0,0,1,.62,1l10.44,20.35a6,6,0,1,1-10.7,5.49L159,110.43v15.7a5.65,5.65,0,0,1,0,.6v45H146.5V133.08h-3.17V171.7Zm-68.23-100A12.45,12.45,0,1,1,75.37,84.15,12.45,12.45,0,0,1,62.92,71.71Zm69.79,0a12.45,12.45,0,1,1,12.44,12.45A12.45,12.45,0,0,1,132.71,71.71ZM96.57,62a13.72,13.72,0,1,1,13.72,13.72A13.73,13.73,0,0,1,96.57,62Z"/>
    </g>
  </g>
</svg>
