<svg xmlns="http://www.w3.org/2000/svg" viewBox="0 0 220 220">
  <defs>
    <style>
      .blue-fill {
        fill: #06bee7
      }

      .white-fill {
        fill: #fff;
      }
    </style>
  </defs>
  <title>home-icon-manage-athlete</title>
  <g id="home-icon-screen-athlete-2" data-name="home-icon-screen-athlete">
    <g>
      <circle class="blue-fill" cx="109.81" cy="110" r="106.5"/>
      <g>
        <path class="white-fill" d="M115.09,93.86v4.62a5.06,5.06,0,0,1-10.12,0v-7H97.44A35,35,0,0,0,62.54,124H60.06a7.07,7.07,0,1,0,0,4.86h2.43A33.81,33.81,0,0,0,96.26,161.2h1A34.78,34.78,0,0,0,132,126.41h0a5.26,5.26,0,0,1,.44-2.16,5.65,5.65,0,0,1,2.11-2.41,9.15,9.15,0,0,1,3.68-1.34l30.56-3.87,4.47-25.23-58.19,0ZM53.43,128.63a2.21,2.21,0,1,1,2.21-2.21A2.21,2.21,0,0,1,53.43,128.63Z"/>
        <rect class="white-fill" x="107.75" y="58.8" width="4.86" height="22.66" rx="2.43" ry="2.43"/>
        <rect class="white-fill" x="116.89" y="78.33" width="18.24" height="4.86" rx="2.43" ry="2.43" transform="translate(-23.28 70.07) rotate(-28.56)"/>
        <rect class="white-fill" x="92.39" y="71.64" width="4.86" height="18.24" rx="2.43" ry="2.43" transform="translate(-21.45 125.43) rotate(-61.44)"/>
      </g>
    </g>
  </g>
</svg>
