<svg id="home-icon-screen-athlete" xmlns="http://www.w3.org/2000/svg" viewBox="0 0 220 220">
  <defs>
    <style>
      .blue-fill {
        fill: #06bee7;
      }

      .white-fill {
        fill: #fff;
      }
    </style>
  </defs>
  <title>home-icon-screen-athlete</title>
  <circle class="blue-fill" cx="110.03" cy="110" r="106.5"/>
  <path class="white-fill" d="M62.27,118.42l18.19,4.16,8.32-11.27a1.13,1.13,0,0,1,2,.41,21.37,21.37,0,0,0,4,8.28l2.78,3.53a2.07,2.07,0,0,1-.17,2.75l-8.93,8.93a7.08,7.08,0,0,1-6.13,2.43,7,7,0,0,1-.84-.15l-22.72-5.22a7.14,7.14,0,0,1-5.37-8.56q.08-.34.19-.67A7.35,7.35,0,0,1,62.27,118.42Zm84.41-67.51a13.21,13.21,0,1,0,8.2,5.85A13.21,13.21,0,0,0,146.67,50.91Zm17.9,59.7a5.83,5.83,0,0,0,2.16-4.11,6.06,6.06,0,0,0-5.39-6.31l-17.73-2.32L138.7,85.74a15.26,15.26,0,0,0-5.52-6.87,121.58,121.58,0,0,0-31.62-15.51l-1.8-.58a5.81,5.81,0,0,0-5.89,1.39L78.62,79.24a6.06,6.06,0,0,0-.5,8.21A5.87,5.87,0,0,0,86.4,88l.28-.26L99.51,75.12,110,80.59,99.26,97a16.63,16.63,0,0,0,1.29,18.8L116,135.47,105.14,159a7.35,7.35,0,0,0,1.7,8.7,7.19,7.19,0,0,0,3.15,1.54,6.72,6.72,0,0,0,.82.13,7.18,7.18,0,0,0,7.28-4.12l12.67-27.8a7,7,0,0,0-.76-7.28l-9.8-18.4,9.07-15.85,4.57,9.36a5.85,5.85,0,0,0,4.2,3.64l.56.1,21.49,2.79A5.71,5.71,0,0,0,164.57,110.61Zm-16.86,32.75a13.21,13.21,0,1,0,8.24,5.86,13.21,13.21,0,0,0-8.24-5.86Z"/>
</svg>
