<svg xmlns="http://www.w3.org/2000/svg" viewBox="0 0 220 220">
  <defs>
    <style>
      .cls-1 {
        fill: #06bee7;
      }

      .cls-2 {
        fill: #fff;
      }
    </style>
  </defs>
  <title>icon-screen-history</title>
  <g id="icon-screen-history">
    <circle class="cls-1" cx="110" cy="110" r="106.5"/>
    <g>
      <path class="cls-2" d="M162,64.26H148.14V60.8a7.36,7.36,0,0,0-7.42-7.42H127.6V50.27a7.37,7.37,0,0,0-7.42-7.42h-62a7.37,7.37,0,0,0-7.42,7.42v76.47a7.37,7.37,0,0,0,7.42,7.43h4.32V148A7.37,7.37,0,0,0,70,155.4h4.83v14.33a7.37,7.37,0,0,0,7.43,7.42h79.57a7.37,7.37,0,0,0,7.42-7.42V71.85A7.25,7.25,0,0,0,162,64.26ZM62.35,60.8V129H58a2.28,2.28,0,0,1-2.24-2.25V50.27A2.28,2.28,0,0,1,58,48h61.62a2.29,2.29,0,0,1,2.25,2.24v3.11H70A7.41,7.41,0,0,0,62.35,60.8Zm12.43,11v78.54H70a2.28,2.28,0,0,1-2.24-2.24V60.8A2.28,2.28,0,0,1,70,58.56h70.6a2.28,2.28,0,0,1,2.24,2.24v3.46H82.38A7.67,7.67,0,0,0,74.78,71.85ZM164.2,169.9a2.28,2.28,0,0,1-2.25,2.24H82.38a2.28,2.28,0,0,1-2.25-2.24V71.85a2.28,2.28,0,0,1,2.25-2.24H162a2.28,2.28,0,0,1,2.25,2.24Z"/>
      <path class="cls-2" d="M96.33,125.51l9.18,2.1,4.2-5.68a.56.56,0,0,1,.8-.12.58.58,0,0,1,.21.32,10.72,10.72,0,0,0,2,4.18l1.4,1.78a1.05,1.05,0,0,1-.08,1.39L109.56,134a3.58,3.58,0,0,1-3.09,1.22l-.42-.07-11.46-2.63a3.61,3.61,0,0,1-2.71-4.32,3.37,3.37,0,0,1,.1-.34A3.7,3.7,0,0,1,96.33,125.51Zm42.59-34.06a6.67,6.67,0,1,0,4.13,3A6.67,6.67,0,0,0,138.92,91.45Zm9,30.12A3,3,0,0,0,149,119.5a3.08,3.08,0,0,0-2.72-3.19l-8.95-1.16L134.9,109a7.72,7.72,0,0,0-2.79-3.47,61.25,61.25,0,0,0-16-7.82l-.91-.3a2.92,2.92,0,0,0-3,.71l-7.7,7.6a3.05,3.05,0,0,0-.25,4.14,3,3,0,0,0,4.18.3l.14-.14,6.47-6.38,5.29,2.76L115,114.7a8.4,8.4,0,0,0,.64,9.48l7.8,9.93L118,146a3.59,3.59,0,0,0,2.45,5.17,3,3,0,0,0,.42.06,3.61,3.61,0,0,0,3.67-2.08l6.39-14a3.55,3.55,0,0,0-.38-3.67l-4.95-9.29,4.58-8,2.31,4.72a3,3,0,0,0,2.11,1.84l.29,0,10.84,1.41A2.89,2.89,0,0,0,148,121.57Zm-8.51,16.52a6.67,6.67,0,1,0,4.16,3,6.66,6.66,0,0,0-4.16-3Z"/>
    </g>
  </g>
</svg>
