<svg xmlns="http://www.w3.org/2000/svg" viewBox="0 0 220 220">
  <defs>
    <style>
      .blue-fill {
        fill: #06bee7;
      }

      .white-fill {
        fill: #fff;
      }
    </style>
  </defs>
  <title>icon-athlete-invite</title>
  <g id="icon-athlete-invite">
    <g>
      <circle class="blue-fill" cx="110" cy="110" r="106.5"/>
      <g>
        <g>
          <path class="white-fill" d="M56.68,164.92c-1.49,0-2.08-.5-2.35-1.9a33.45,33.45,0,0,1,2.88-24.09A25,25,0,0,1,77.45,126.3a64.73,64.73,0,0,1,7-.22h55.1a27.56,27.56,0,0,1,15.12,4.19,25.34,25.34,0,0,1,11.52,17.6A38.83,38.83,0,0,1,165.8,163a2,2,0,0,1-2,1.93,1.63,1.63,0,0,1-.31,0Z"/>
          <path class="white-fill" d="M110,55.05A31.51,31.51,0,1,1,78.54,86.62V86.5A31.85,31.85,0,0,1,110,55.05Z"/>
        </g>
        <circle class="blue-fill" cx="152.98" cy="147.5" r="29"/>
        <path class="white-fill" d="M153,178.5a31,31,0,1,1,31-31A31,31,0,0,1,153,178.5Zm0-58a27,27,0,1,0,27,27A27,27,0,0,0,153,120.5Z"/>
        <path class="white-fill" d="M167.89,147.55h0a3,3,0,0,1-3,3H156v8.92a3,3,0,0,1-3,3h0a3,3,0,0,1-3-3v-8.92h-9a3,3,0,0,1-3-3h0a3,3,0,0,1,3-3h9v-9a3,3,0,0,1,3-3h0a3,3,0,0,1,3,3v9h8.92A3,3,0,0,1,167.89,147.55Z"/>
      </g>
    </g>
  </g>
</svg>
