<svg id="broadjump-ui" xmlns="http://www.w3.org/2000/svg" xmlns:xlink="http://www.w3.org/1999/xlink" viewBox="0 0 750 275">
  <defs>
    <style>
      .bj-ground-dirt {
        fill: #3e2723;
      }

      .bj-grass-out {
        fill: #00796b;
      }

      .bj-grass-gradient {
        fill: url(#bj-grass-gradient);
      }

      .bj-boundsline {
        fill: #fff;
        opacity: 0.8;
      }

      .bj-player-icon {
        fill: #060b3e;
      }

      .bj-hit {
        fill: lime;
        opacity: 0;
      }
    </style>
    <linearGradient id="bj-grass-gradient" data-name="grass-gradient" x1="375.01" y1="170.73" x2="375.01" y2="234.02" gradientUnits="userSpaceOnUse">
      <stop offset="0" stop-color="#1fa84f"/>
      <stop offset="1" stop-color="#82bc00"/>
    </linearGradient>
  </defs>
  <title>broadjump-ui</title>
  <g id="graphics">
    <path id="ground-graphic" class="bj-ground-dirt" d="M707.62,264.88H42.39c-5.8,0-10.3-1-10.55-2.11,0-.21,0-9,0-9H718.18s0,8.74,0,8.91C718.25,263.84,713.63,264.88,707.62,264.88Z"/>
    <path id="outer-graphic" class="bj-grass-out" d="M707.62,255.88H42.39c-6.84,0-11.88-1.34-10.25-2.74l105.78-90.72c1.15-1,5.39-1.69,10.25-1.69H601.84c4.86,0,9.1.7,10.25,1.69l105.78,90.72C719.5,254.53,714.46,255.88,707.62,255.88Z"/>
    <polygon id="grass" class="bj-grass-gradient" points="621.79 170.74 128.22 170.74 54.43 234.02 695.58 234.02 621.79 170.74"/>
    <path id="gridlines" class="bj-boundsline" d="M653.54,255.88h-2.72l-87.93-95.14h2.72ZM515.82,160.73l65.77,95.14H584l-65.77-95.14Zm-94.44,0,21.81,95.14h2.05l-21.81-95.14Zm47.27,0,43.73,95.14h2.2l-43.73-95.14ZM235.73,255.88h2.2l43.73-95.14h-2.2Zm-69.29,0h2.43l65.77-95.14H232.2ZM185,160.73,97.05,255.88h2.72l87.93-95.14Zm189,95.14h2V160.73h-2Zm-69.09,0H307l21.81-95.14h-2.05Z"/>
    <g id="dude">
      <path class="bj-player-icon" d="M437.32,109.09q-.4-.18-.8-.32A285.3,285.3,0,0,0,347.19,88.4c6.49-5.67,13.63-10.43,19.17-15.23-3.2-1-6.45-1.78-9.71-2.42h-.09l-.32-.05A11.38,11.38,0,0,1,358,48.08h0a11.48,11.48,0,0,1,1.79.14h.09A122.84,122.84,0,0,1,375.12,52a192.71,192.71,0,0,1,38.86,17l0,0,2.74,1.64a11.31,11.31,0,0,1,5.2,7,11.52,11.52,0,0,1,.26,1.5,7.24,7.24,0,0,0-2-10.62c-26.19-15.86-47-21.91-53.83-23.6-5.73-2.23-13.34-2-21.07,3.1-16.15,10.75-24.48,19.41-35,36.88-6.71,13.36-1.22,24.32,7,25.69a31.36,31.36,0,0,0,4.48.47,11.35,11.35,0,0,0,2.53,0c.29,0,3.67-.32,9.5-.32A257.28,257.28,0,0,1,428,129.87a11.39,11.39,0,1,0,9.33-20.78Z"/>
      <path class="bj-player-icon" d="M414.63,74.2A188.37,188.37,0,0,0,373.9,55.95a118.41,118.41,0,0,0-14.74-3.68,7.28,7.28,0,0,0-2.28,14.39H357a108.25,108.25,0,0,1,12.16,3.07,173.37,173.37,0,0,1,38,17,7.29,7.29,0,0,0,7.48-12.51Z"/>
      <path class="bj-player-icon" d="M395.05,39.81a16.73,16.73,0,1,0-23.54-2.38h0A16.72,16.72,0,0,0,395,39.82Z"/>
    </g>
  </g>
  <rect id="hittest-target" ng-click="handleBroadJumpUIClick($event)" class="bj-hit" x="31.0" y="0" width="686" height="275"/>
</svg>
