<svg id="broadjump-height-ui" xmlns="http://www.w3.org/2000/svg" viewBox="0 0 750 202">
  <defs>
    <style>
      .bj-rule-color {
        fill: #eef3f5;
      }

      .bj-player-icon {
        fill: #060b3e;
      }

      .bj-hit {
        fill: lime;
        opacity: 0;
      }
    </style>
  </defs>
  <title>broadjump-height-ui</title>
  <g id="rules">
    <path class="bj-rule-color" d="M625,202H125a2,2,0,0,1,0-4H625a2,2,0,0,1,0,4Z"/>
    <path class="bj-rule-color" d="M625,162.4H125a2,2,0,0,1,0-4H625a2,2,0,0,1,0,4Z"/>
    <path class="bj-rule-color" d="M625,122.8H125a2,2,0,0,1,0-4H625a2,2,0,0,1,0,4Z"/>
    <path class="bj-rule-color" d="M625,83.2H125a2,2,0,0,1,0-4H625a2,2,0,0,1,0,4Z"/>
    <path class="bj-rule-color" d="M625,43.6H125a2,2,0,0,1,0-4H625a2,2,0,0,1,0,4Z"/>
    <path class="bj-rule-color" d="M625,4H125a2,2,0,0,1,0-4H625a2,2,0,0,1,0,4Z"/>
  </g>
  <g id="guys">
    <g id="lrg">
      <path id="ball" class="bj-player-icon" d="M562.92,165.76a16.86,16.86,0,1,0,10.51,7.48,16.86,16.86,0,0,0-10.51-7.48Z"/>
      <g id="body">
        <path class="bj-player-icon" d="M513.93,25.88a15,15,0,1,0,9.32,6.63,15,15,0,0,0-9.32-6.63Z"/>
        <path class="bj-player-icon" d="M550.07,104.38c9.8,9.8,21.07.9,16-5.81L543.95,72.25s-10.86-14.68-21.54-14.68H498.22c-10.29,0-15.54,7.9-18.61,18.87l-5.49,19.35L474,125.11c0,8.67,14.23,8.67,14.23,0l1.8-35.7,1.85-4.07.33,105c0,4.5,4.73,8.67,9.23,8.67s8.88-4.17,8.88-8.67l3.93-57.15,35.3-3.51,0,23.41.15,3.86c.7,4.07,5.23,7.18,9.51,7.18h0a8.62,8.62,0,0,0,8.49-7.2l.15-3.86,0-34.49c0-.15,0-.29,0-.44s0-.29,0-.45-.06-.28-.09-.42a8.57,8.57,0,0,0-.18-.86c-.07-.28-.16-.55-.25-.82s-.2-.49-.31-.73-.28-.55-.44-.82-.25-.38-.39-.57a8.09,8.09,0,0,0-.63-.76c-.14-.16-.3-.31-.45-.45a8.89,8.89,0,0,0-.78-.64c-.17-.13-.35-.25-.54-.36a8.63,8.63,0,0,0-.87-.47c-.21-.1-.43-.19-.64-.27a8.52,8.52,0,0,0-.92-.29c-.25-.06-.49-.11-.74-.15a9,9,0,0,0-.93-.09c-.13,0-.26,0-.4,0l-33.71-.08,2-31.81Z"/>
      </g>
    </g>
    <g id="med">
      <path id="ball-2" data-name="ball" class="bj-player-icon" d="M410.54,165.76a16.86,16.86,0,1,0,10.51,7.48,16.86,16.86,0,0,0-10.51-7.48Z"/>
      <g id="body-2" data-name="body">
        <path class="bj-player-icon" d="M365.58,45.93a13.22,13.22,0,1,0,8.24,5.86,13.22,13.22,0,0,0-8.24-5.86Z"/>
        <path class="bj-player-icon" d="M397.54,115.34c8.67,8.67,18.63.8,14.17-5.14L392.13,86.93s-9.6-13-19-13H351.69c-9.1,0-13.74,7-16.46,16.69l-4.85,17.11-.1,25.93c0,7.67,12.58,7.67,12.58,0l1.6-31.57,1.64-3.6.29,92.88c0,4,4.19,7.67,8.16,7.67s7.85-3.69,7.85-7.67l3.48-50.53,31.21-3.11v20.7l.13,3.42c.62,3.6,4.63,6.34,8.41,6.35h0a7.62,7.62,0,0,0,7.51-6.36l.13-3.42,0-30.49c0-.14,0-.26,0-.39s0-.26,0-.39-.06-.24-.08-.37A7.58,7.58,0,0,0,413,126c-.06-.25-.14-.49-.22-.73s-.17-.43-.27-.64-.25-.49-.39-.72-.22-.34-.35-.5a7.15,7.15,0,0,0-.56-.67c-.13-.14-.26-.27-.4-.4a7.86,7.86,0,0,0-.69-.57c-.15-.12-.31-.22-.48-.32a7.63,7.63,0,0,0-.77-.42l-.57-.24a7.53,7.53,0,0,0-.81-.25c-.22-.05-.44-.09-.66-.13a8,8,0,0,0-.82-.08c-.12,0-.23,0-.36,0l-29.81-.07,1.8-28.13Z"/>
      </g>
    </g>
    <g id="small">
      <path id="ball-3" data-name="ball" class="bj-player-icon" d="M266.82,165.76a16.86,16.86,0,1,0,10.51,7.48,16.86,16.86,0,0,0-10.51-7.48Z"/>
      <g id="body-3" data-name="body">
        <path class="bj-player-icon" d="M226.14,63a11.75,11.75,0,1,0,7.33,5.21A11.75,11.75,0,0,0,226.14,63Z"/>
        <path class="bj-player-icon" d="M254.54,124.66c7.7,7.7,16.56.71,12.59-4.57l-17.4-20.68s-8.53-11.54-16.92-11.54h-19c-8.09,0-12.21,6.21-14.62,14.83l-4.31,15.2-.09,23c0,6.82,11.18,6.82,11.18,0l1.42-28.05,1.45-3.2.26,82.54c0,3.54,3.72,6.81,7.25,6.81a7.27,7.27,0,0,0,7-6.81l3.09-44.9,27.74-2.76V163l.12,3c.55,3.19,4.11,5.64,7.47,5.64h0a6.77,6.77,0,0,0,6.67-5.65l.12-3,0-27.1c0-.12,0-.23,0-.35s0-.23,0-.35-.05-.22-.07-.33a6.73,6.73,0,0,0-.14-.68c-.06-.22-.12-.44-.2-.65s-.15-.38-.24-.57-.22-.43-.35-.64-.2-.3-.31-.45a6.36,6.36,0,0,0-.5-.6c-.11-.12-.23-.24-.36-.36a7,7,0,0,0-.61-.5c-.14-.1-.28-.19-.42-.29a6.78,6.78,0,0,0-.68-.37l-.51-.21a6.69,6.69,0,0,0-.72-.23l-.59-.12a7.1,7.1,0,0,0-.73-.07c-.11,0-.21,0-.32,0L235.26,129l1.6-25Z"/>
      </g>
    </g>
  </g>
  <path id="arrow" class="bj-player-icon" d="M139.3,171.88a2.47,2.47,0,0,0-3.5,3.5l10,10a2.66,2.66,0,0,0,3.6,0l10-10a2.47,2.47,0,0,0-3.5-3.5l-5.9,5.8V27l5.7,5.7a2.51,2.51,0,0,0,3.6-3.5l-10-10a2.42,2.42,0,0,0-3.5,0l-10,10a2.47,2.47,0,0,0,3.5,3.5L145,27V177.58Z"/>
  <rect id="hittest" ng-click="handleHeightUIClick($event)" class="bj-hit" x="37" width="686" height="202"/>
</svg>
